<?xml version="1.0" standalone="no"?>
<!DOCTYPE svg PUBLIC "-//W3C//DTD SVG 20010904//EN"
 "http://www.w3.org/TR/2001/REC-SVG-20010904/DTD/svg10.dtd">
<svg version="1.0" xmlns="http://www.w3.org/2000/svg"
 width="1396.000000pt" height="1396.000000pt" viewBox="0 0 1396.000000 1396.000000"
 preserveAspectRatio="xMidYMid meet">
<metadata>
Created by potrace 1.14, written by Peter Selinger 2001-2017
</metadata>
<g transform="translate(0.000000,1396.000000) scale(0.100000,-0.100000)"
fill="#000000" stroke="none">
<path d="M8649 11116 c-2 -2 -29 -6 -59 -10 -114 -12 -140 -16 -201 -31 -35
-9 -73 -18 -84 -20 -92 -20 -375 -136 -383 -156 -2 -5 -8 -9 -13 -9 -6 0 -37
-18 -70 -40 -33 -22 -64 -40 -69 -40 -5 0 -15 -6 -22 -12 -22 -21 -127 -88
-138 -88 -5 0 -10 -4 -10 -10 0 -5 -5 -10 -10 -10 -9 0 -148 -87 -160 -101 -4
-4 -162 -107 -208 -134 -9 -5 -39 -26 -67 -46 -27 -20 -54 -38 -60 -40 -12 -5
-218 -141 -225 -148 -3 -4 -59 -42 -125 -86 -66 -44 -121 -83 -123 -87 -2 -5
-8 -8 -12 -8 -8 0 -100 -60 -135 -87 -5 -5 -53 -37 -105 -73 -52 -35 -96 -68
-98 -72 -2 -4 -10 -8 -17 -8 -7 0 -15 -3 -17 -7 -1 -5 -30 -26 -63 -48 -33
-22 -62 -42 -65 -45 -3 -3 -52 -40 -110 -82 -58 -42 -118 -89 -135 -103 l-29
-26 77 -154 c43 -85 78 -157 77 -161 -1 -4 2 -10 7 -13 5 -3 18 -24 30 -46 19
-38 59 -113 144 -270 21 -38 45 -83 53 -100 8 -16 35 -66 59 -110 24 -44 65
-120 91 -170 27 -49 57 -103 66 -120 10 -16 32 -56 49 -87 17 -32 44 -82 60
-110 16 -29 53 -98 83 -153 74 -134 103 -186 154 -276 24 -42 44 -81 44 -87 0
-7 3 -12 8 -12 4 0 12 -10 18 -23 15 -33 58 -111 64 -117 3 -3 16 -25 29 -50
58 -106 91 -149 109 -143 37 14 334 210 340 225 2 4 7 8 11 8 4 0 72 43 151
95 78 52 156 100 171 107 16 7 29 16 29 20 0 5 5 8 11 8 6 0 30 14 55 30 24
17 44 27 44 23 0 -4 4 -3 8 2 11 16 227 126 360 184 124 54 296 105 391 116
20 3 47 7 61 10 132 27 527 22 715 -10 17 -2 48 -7 70 -10 22 -4 56 -10 75
-15 19 -5 46 -11 60 -14 14 -3 43 -10 65 -16 22 -6 47 -13 55 -15 8 -2 15 -4
15 -5 0 -1 7 -3 15 -5 8 -2 58 -17 110 -35 52 -17 102 -33 110 -35 8 -2 44
-13 79 -24 74 -24 87 -26 94 -8 28 66 55 137 51 137 -3 0 0 8 5 18 6 11 12 30
15 43 10 48 15 71 20 87 3 9 8 35 12 57 3 22 8 43 10 46 1 3 8 37 14 75 7 38
14 83 17 99 8 54 10 282 2 357 -50 459 -202 798 -482 1078 -76 76 -124 120
-132 120 -3 0 -16 9 -28 21 -74 70 -249 164 -442 239 -23 9 -100 30 -130 36
-11 2 -31 6 -45 9 -75 15 -127 19 -245 19 -71 1 -152 -3 -180 -8 -27 -4 -59
-9 -70 -11 -78 -12 -336 -109 -355 -133 -3 -4 -25 -18 -50 -31 -54 -30 -197
-119 -339 -213 -57 -37 -107 -68 -110 -68 -3 0 -19 -11 -35 -25 -16 -14 -33
-25 -37 -25 -4 0 -14 -6 -21 -13 -7 -7 -31 -24 -53 -37 -22 -13 -44 -28 -50
-32 -5 -5 -53 -36 -105 -71 -52 -34 -103 -69 -113 -78 -9 -9 -30 -22 -45 -30
-15 -8 -29 -16 -32 -19 -3 -3 -43 -33 -90 -65 -106 -74 -297 -215 -329 -243
-22 -20 -23 -24 -10 -54 12 -31 129 -261 182 -358 13 -25 39 -72 57 -105 18
-33 52 -94 76 -136 24 -42 44 -81 44 -86 0 -6 6 -16 14 -22 8 -7 24 -31 36
-53 12 -23 36 -63 53 -89 l31 -48 33 14 c62 26 206 133 217 162 5 13 -187 405
-216 440 -6 7 -8 13 -4 13 3 0 -5 21 -18 48 -44 88 -57 125 -48 138 10 13 88
74 167 129 39 28 75 53 80 58 68 54 564 384 685 454 36 21 74 43 85 50 110 66
322 152 420 169 59 11 203 11 255 2 25 -5 56 -11 70 -13 14 -2 37 -8 53 -14
15 -6 27 -9 27 -6 0 4 65 -17 100 -32 8 -3 17 -7 20 -8 31 -8 60 -21 83 -37
15 -11 27 -17 27 -14 0 9 101 -54 170 -107 81 -63 187 -170 231 -234 18 -26
36 -49 41 -51 4 -2 8 -8 8 -13 0 -6 16 -34 35 -64 19 -30 32 -55 30 -55 -3 0
1 -10 9 -22 17 -27 75 -170 80 -201 3 -12 5 -22 6 -22 7 0 34 -134 47 -230 7
-53 9 -357 2 -438 l-4 -49 -64 6 c-36 4 -70 11 -76 16 -7 5 -14 8 -16 5 -3 -2
-38 5 -79 16 -41 11 -86 22 -100 25 -14 3 -41 9 -60 14 -49 13 -81 19 -185 35
-78 12 -137 18 -292 28 -18 1 -33 0 -33 -3 0 -3 -13 -5 -30 -5 -16 0 -30 4
-30 8 0 5 -5 5 -11 2 -6 -4 -36 -9 -67 -10 -64 -4 -210 -22 -242 -30 -3 -1
-27 -5 -55 -10 -58 -10 -52 -9 -90 -18 -16 -4 -39 -9 -50 -11 -11 -2 -49 -12
-85 -21 -36 -10 -71 -18 -77 -18 -7 0 -13 -3 -13 -7 0 -3 -8 -6 -18 -7 -34 -3
-215 -74 -341 -134 -132 -63 -288 -153 -468 -271 -119 -77 -190 -123 -234
-149 -15 -8 -39 -23 -53 -32 -39 -26 -50 -21 -81 36 -15 28 -39 72 -53 97 -13
25 -40 74 -59 110 -19 36 -38 72 -43 80 -6 8 -51 92 -101 185 -51 94 -104 190
-118 215 -14 25 -26 47 -26 50 0 3 -30 59 -66 125 -36 66 -84 154 -106 195
-22 41 -62 116 -88 165 -27 50 -59 110 -73 135 -38 71 -63 138 -52 145 6 4 8
10 5 14 -5 8 85 97 141 138 92 69 129 95 219 158 157 108 160 110 165 115 3 3
13 10 22 15 23 13 461 308 468 315 15 15 361 240 369 240 5 0 11 4 13 9 2 5
64 45 138 90 74 45 142 86 150 91 21 13 203 103 215 106 6 2 33 12 61 23 29
11 54 17 58 14 3 -4 6 -1 6 6 0 7 3 10 8 7 4 -2 35 2 69 10 57 13 116 20 238
29 146 10 410 4 475 -10 14 -3 36 -8 49 -11 14 -3 28 -7 33 -10 4 -3 16 -7 26
-9 120 -23 509 -218 573 -287 9 -10 20 -18 24 -18 9 0 110 -88 177 -154 65
-63 170 -188 204 -241 10 -17 21 -32 24 -35 15 -13 83 -125 128 -210 65 -121
122 -258 160 -385 26 -89 33 -114 49 -175 2 -8 5 -24 7 -36 2 -11 7 -27 11
-34 6 -9 4 -11 -4 -5 -10 6 -11 3 -2 -14 7 -11 10 -21 7 -21 -3 0 -1 -14 4
-32 29 -99 32 -521 6 -668 -2 -14 -10 -59 -16 -100 -7 -41 -14 -84 -17 -95 -2
-11 -6 -31 -9 -44 -3 -14 -7 -28 -9 -31 -2 -4 -7 -22 -10 -41 -3 -19 -24 -90
-47 -159 -22 -69 -42 -135 -43 -147 -4 -27 71 -98 188 -181 122 -85 397 -262
408 -262 5 0 9 -4 9 -10 0 -5 5 -10 11 -10 5 0 36 -17 67 -38 74 -48 91 -58
127 -78 16 -9 35 -23 43 -30 7 -8 20 -14 28 -14 8 0 14 -4 14 -10 0 -5 4 -10
9 -10 5 0 51 -27 102 -60 52 -33 101 -63 109 -67 15 -7 76 -46 95 -60 6 -5 21
-14 35 -20 14 -7 57 -32 95 -57 321 -204 814 -495 926 -548 124 -58 140 -61
360 -63 262 -2 254 1 326 -145 28 -58 52 -114 52 -125 2 -49 -244 -118 -424
-119 -91 0 -235 16 -275 31 -8 3 -24 8 -35 10 -36 6 -125 45 -125 54 0 5 -5 9
-12 9 -11 0 -62 29 -328 188 -69 41 -141 84 -160 95 -19 10 -46 27 -60 36 -42
27 -64 40 -97 57 -18 9 -37 22 -44 30 -6 8 -16 14 -21 14 -6 0 -30 14 -55 30
-24 17 -48 30 -52 30 -5 0 -14 7 -21 15 -7 8 -16 13 -20 10 -5 -3 -10 -1 -12
3 -1 5 -36 28 -76 53 -85 51 -59 35 -423 258 -156 95 -300 183 -319 196 -31
19 -131 80 -182 110 -10 6 -77 46 -150 90 -73 44 -142 84 -153 91 -11 6 -42
23 -70 39 -27 15 -54 31 -60 35 -13 9 -121 69 -160 89 -16 8 -32 17 -35 21
-10 13 -378 188 -460 220 -47 17 -94 36 -105 41 -36 15 -219 59 -275 66 -106
13 -413 5 -439 -11 -3 -3 -27 -7 -51 -11 -25 -3 -63 -11 -85 -16 -22 -5 -49
-11 -60 -13 -37 -5 -209 -65 -290 -100 -16 -7 -55 -24 -85 -37 -192 -82 -450
-231 -450 -260 0 -14 62 -141 79 -161 8 -10 11 -18 7 -18 -4 0 6 -24 22 -52
16 -29 57 -107 92 -173 95 -181 225 -426 282 -530 15 -27 37 -70 50 -95 13
-25 25 -47 28 -50 3 -3 15 -25 28 -50 95 -183 180 -340 194 -357 6 -7 7 -13 3
-13 -4 0 -3 -6 3 -13 11 -12 72 -129 169 -320 25 -50 41 -92 37 -100 -22 -37
-173 -141 -222 -154 -49 -12 -70 15 -232 312 -12 22 -31 58 -44 80 -24 44 -84
153 -126 230 -15 28 -51 95 -80 150 -29 55 -65 123 -80 150 -25 46 -64 118
-142 265 -17 30 -34 59 -39 65 -5 5 -9 17 -9 26 0 10 -3 19 -7 21 -5 2 -18 23
-31 48 -12 25 -33 63 -46 85 -12 22 -51 94 -86 160 -35 66 -73 134 -84 150
-12 17 -20 31 -18 33 4 4 -32 56 -47 68 -40 31 -237 -86 -255 -151 -4 -14 27
-86 98 -225 159 -314 211 -415 216 -420 3 -3 20 -34 38 -70 17 -36 54 -105 80
-155 26 -49 79 -148 116 -220 38 -71 81 -152 96 -180 15 -27 65 -120 110 -205
46 -85 96 -180 113 -210 54 -102 100 -185 126 -230 14 -25 26 -47 26 -50 1 -8
57 -106 97 -170 30 -48 43 -60 63 -60 34 0 112 37 199 95 38 25 71 45 73 45 2
0 28 18 58 40 30 22 57 40 60 40 8 0 78 52 87 65 5 7 8 7 8 0 0 -7 3 -7 8 0 4
6 41 33 82 60 41 28 77 52 80 55 3 3 45 32 93 64 49 32 91 64 93 71 3 7 -9 35
-25 64 -17 28 -28 51 -24 51 3 0 0 8 -8 18 -8 9 -19 26 -25 37 -11 21 -65 121
-133 248 -67 125 -149 276 -206 382 -31 58 -66 122 -155 290 -24 44 -59 109
-78 145 -19 36 -55 103 -80 150 -25 47 -62 117 -82 155 -110 204 -180 353
-174 368 7 18 73 61 147 95 71 33 196 74 207 67 6 -3 10 -2 10 2 0 5 8 9 18
10 9 1 31 4 47 7 181 36 555 37 675 1 8 -2 31 -7 50 -10 66 -10 145 -39 245
-89 55 -27 102 -52 105 -55 3 -3 19 -13 35 -21 17 -8 68 -36 114 -62 46 -27
88 -48 92 -48 5 0 9 -5 9 -11 0 -5 4 -8 9 -5 5 3 14 -1 21 -9 7 -8 19 -15 26
-15 8 0 14 -3 14 -7 0 -5 10 -13 23 -19 33 -15 111 -58 117 -64 3 -3 16 -11
29 -18 67 -38 99 -57 255 -151 93 -55 173 -101 178 -101 4 0 8 -4 8 -10 0 -5
4 -10 9 -10 11 0 220 -127 245 -149 10 -9 20 -15 22 -13 2 1 30 -14 61 -34 31
-20 67 -41 80 -47 13 -5 23 -14 23 -18 0 -4 11 -10 25 -13 14 -4 25 -11 25
-16 0 -6 4 -10 10 -10 9 0 208 -118 220 -130 3 -3 25 -16 50 -29 25 -14 47
-27 50 -30 3 -3 16 -12 29 -19 13 -8 40 -23 60 -34 20 -11 48 -29 63 -39 14
-11 29 -19 33 -19 4 0 30 -15 58 -34 29 -18 73 -45 98 -59 63 -34 91 -51 103
-60 17 -13 263 -154 330 -190 34 -18 63 -34 66 -37 3 -3 21 -13 40 -24 203
-108 250 -125 405 -149 88 -13 313 -15 388 -3 20 3 54 9 75 12 20 3 64 12 97
20 33 8 70 17 83 20 74 15 206 78 368 176 100 59 111 71 96 101 -31 61 -70
156 -66 160 3 2 -2 10 -11 17 -8 7 -15 17 -15 22 0 22 -261 533 -332 651 -41
68 -57 78 -96 58 -85 -43 -214 -101 -245 -109 -57 -16 -164 -7 -237 18 -116
41 -340 159 -608 321 -63 38 -118 69 -123 69 -5 0 -9 3 -9 8 0 4 -26 22 -57
40 -70 39 -314 188 -328 199 -5 4 -62 39 -125 77 -63 38 -118 74 -122 80 -4 6
-8 7 -8 2 0 -5 -8 -2 -17 6 -14 12 -181 117 -318 201 -11 7 -39 24 -62 40 -23
15 -46 27 -52 27 -6 0 -11 5 -11 10 0 6 -6 10 -12 11 -19 1 -183 114 -181 125
1 5 4 43 8 84 4 41 8 77 10 80 2 3 6 24 9 46 4 22 9 51 12 64 3 14 7 43 10 65
2 21 6 51 9 65 26 146 26 634 0 820 -2 14 -7 48 -10 75 -8 57 -64 295 -73 310
-4 6 -8 18 -9 28 -5 32 -114 300 -144 355 -16 28 -26 52 -22 52 4 0 4 4 -2 8
-10 7 -14 14 -57 91 -35 63 -145 226 -162 240 -9 7 -16 19 -16 26 0 8 -3 15
-7 17 -5 2 -32 32 -62 68 -83 99 -240 251 -330 320 -18 14 -45 34 -59 45 -49
38 -132 95 -138 95 -3 0 -18 8 -32 19 -102 71 -417 206 -532 227 -14 3 -51 11
-84 19 -32 9 -81 18 -110 21 -28 4 -72 10 -97 13 -48 8 -343 13 -350 7z"/>
<path d="M5414 9238 c-361 -247 -469 -323 -472 -330 -2 -4 -10 -8 -18 -8 -8 0
-14 -4 -14 -10 0 -5 -6 -10 -14 -10 -8 0 -16 -4 -18 -9 -1 -5 -20 -20 -40 -34
-34 -23 -83 -61 -141 -110 l-21 -18 92 -182 c51 -100 110 -216 133 -257 22
-41 65 -122 95 -179 30 -57 59 -110 65 -117 6 -8 8 -14 3 -14 -5 0 -4 -4 1 -8
6 -4 22 -29 36 -57 15 -27 42 -79 61 -115 19 -36 53 -99 75 -140 193 -362 332
-637 325 -644 -3 -3 0 -6 6 -6 7 0 11 -3 10 -7 0 -5 11 -35 27 -68 51 -110 56
-131 37 -148 -28 -24 -92 -53 -184 -81 -85 -26 -101 -30 -162 -42 -16 -2 -32
-6 -35 -8 -3 -2 -26 -7 -51 -10 -25 -3 -54 -8 -66 -10 -95 -19 -288 -25 -399
-13 -86 9 -217 29 -260 40 -11 3 -42 11 -70 18 -60 15 -265 118 -468 235 -32
19 -60 34 -62 34 -1 0 -33 18 -69 40 -36 22 -70 40 -76 40 -5 0 -10 4 -10 9 0
5 -8 11 -17 14 -18 6 -94 48 -103 57 -3 3 -16 11 -30 18 -14 7 -37 20 -52 30
-50 32 -121 72 -129 72 -5 0 -9 5 -9 10 0 6 -4 10 -9 10 -5 0 -58 30 -118 66
-59 36 -117 71 -127 77 -11 7 -43 26 -70 43 -28 17 -55 32 -60 32 -5 0 -12 4
-15 9 -5 8 -192 125 -311 196 -42 24 -73 43 -194 117 -59 36 -115 69 -126 75
-11 5 -20 13 -20 17 0 5 -4 8 -10 8 -5 0 -67 35 -137 78 -71 43 -135 81 -143
85 -8 4 -28 15 -45 26 -105 64 -217 130 -257 151 -27 14 -48 28 -48 32 0 5 -5
8 -11 8 -7 0 -35 14 -62 31 -269 166 -429 211 -727 205 -96 -2 -188 -7 -205
-10 -90 -19 -142 -29 -160 -32 -62 -8 -326 -115 -333 -135 -2 -5 -12 -9 -23
-9 -10 0 -19 -4 -19 -10 0 -5 -5 -10 -10 -10 -14 0 -88 -49 -124 -82 -28 -25
-29 -28 -16 -60 14 -36 124 -261 155 -318 10 -19 20 -41 21 -48 1 -7 7 -19 13
-26 7 -8 30 -49 53 -92 22 -44 69 -130 104 -191 35 -62 64 -117 64 -122 0 -5
4 -11 8 -13 4 -1 18 -20 31 -41 22 -36 26 -38 60 -33 20 3 81 28 136 57 204
105 325 77 765 -174 69 -40 132 -76 141 -82 9 -5 36 -21 59 -35 50 -29 43 -25
195 -118 66 -40 129 -79 140 -85 11 -7 38 -24 60 -38 22 -14 47 -29 55 -32 14
-7 266 -163 300 -187 16 -11 286 -179 410 -255 204 -125 245 -154 262 -186 10
-18 15 -42 13 -53 -2 -12 -16 -75 -30 -142 -43 -204 -45 -218 -62 -369 -14
-140 -7 -468 13 -575 3 -14 6 -41 8 -60 7 -80 74 -361 101 -425 7 -16 17 -46
23 -65 31 -112 175 -417 240 -507 12 -17 22 -34 22 -37 0 -10 121 -178 174
-241 52 -62 233 -246 299 -304 39 -34 179 -138 239 -178 78 -51 314 -166 368
-178 8 -2 37 -11 64 -20 51 -18 78 -25 113 -30 11 -2 30 -6 41 -9 26 -9 62
-15 172 -31 152 -23 555 -23 622 -1 7 3 31 7 53 10 60 8 82 13 149 36 34 11
63 19 66 18 3 -1 16 5 30 12 14 8 30 15 35 16 36 6 334 164 448 237 31 20 62
37 67 37 6 0 10 5 10 10 0 6 4 10 10 10 10 0 461 290 525 337 6 5 78 53 160
108 83 55 152 103 153 108 2 4 9 7 16 7 7 0 21 8 32 18 10 9 59 44 108 77 232
156 302 204 311 212 6 5 28 20 50 33 22 13 42 27 45 30 3 3 37 27 75 53 39 26
108 73 154 105 46 31 91 62 100 67 9 6 18 13 21 16 3 3 11 8 19 10 13 5 -52
139 -206 429 -84 158 -137 257 -166 310 -61 114 -89 165 -207 385 -144 268
-387 715 -400 735 -5 8 -18 31 -28 50 -10 19 -28 51 -39 70 -11 19 -37 67 -58
105 -58 106 -73 125 -101 125 -27 0 -200 -87 -289 -147 -33 -22 -68 -42 -77
-46 -10 -3 -18 -11 -18 -17 0 -5 -5 -10 -11 -10 -7 0 -34 -16 -60 -35 -27 -19
-54 -35 -59 -35 -6 0 -10 -3 -10 -8 0 -4 -17 -16 -37 -27 -20 -11 -42 -24 -48
-30 -6 -5 -22 -17 -35 -24 -14 -8 -83 -50 -155 -94 -116 -70 -329 -181 -410
-214 -127 -52 -280 -97 -370 -108 -16 -3 -55 -8 -85 -12 -105 -15 -629 -6
-721 12 -13 3 -42 7 -64 10 -112 14 -272 61 -410 120 -117 51 -239 95 -245 88
-19 -22 -87 -215 -96 -273 -3 -19 -8 -38 -10 -41 -17 -29 -27 -713 -12 -861 6
-65 31 -173 49 -213 4 -11 24 -58 43 -105 83 -205 208 -393 366 -550 130 -129
133 -131 246 -205 161 -105 327 -172 521 -209 90 -18 252 -23 368 -12 70 6 93
9 150 22 17 4 37 8 45 9 8 1 22 4 30 7 8 3 40 13 70 23 30 10 78 30 107 46 65
35 289 170 366 221 32 21 61 38 63 38 3 0 17 9 32 19 15 10 156 105 314 209
628 417 733 499 723 564 -2 9 -10 30 -18 45 -37 72 -70 129 -79 141 -6 6 -7
12 -4 12 4 0 -1 12 -12 28 -10 15 -37 61 -59 102 -22 41 -62 116 -89 165 -26
50 -71 131 -98 181 -28 49 -64 116 -81 147 -24 45 -35 57 -54 57 -58 0 -238
-115 -242 -154 -4 -44 13 -90 84 -226 45 -85 110 -212 146 -282 l65 -128 -24
-25 c-12 -13 -41 -37 -64 -52 -22 -15 -46 -32 -52 -38 -6 -5 -20 -16 -30 -23
-11 -7 -70 -48 -132 -92 -62 -44 -115 -80 -118 -80 -2 0 -14 -8 -25 -18 -10
-11 -32 -25 -47 -33 -15 -8 -29 -17 -32 -20 -8 -9 -339 -229 -345 -229 -6 0
-65 -40 -75 -50 -8 -8 -220 -135 -256 -154 -126 -63 -467 -68 -714 -11 -14 3
-36 8 -50 11 -53 11 -207 93 -275 147 -83 64 -149 129 -214 210 -34 41 -61 80
-61 85 0 6 -4 12 -9 14 -13 5 -84 135 -123 228 -39 90 -70 190 -82 260 -2 8
-6 31 -9 50 -24 130 -38 375 -23 399 4 6 3 11 -3 11 -7 0 -7 8 -1 25 5 14 7
25 4 25 -2 0 2 13 11 30 9 17 27 33 42 36 24 6 98 -3 158 -19 111 -30 164 -39
366 -63 25 -2 102 -7 172 -9 69 -2 131 -6 136 -9 5 -4 12 -2 16 4 4 6 11 7 17
4 9 -6 93 -9 101 -4 1 1 40 3 87 5 90 3 215 13 240 20 8 2 33 6 55 10 41 6 73
11 112 19 60 12 221 60 245 72 16 8 28 12 28 10 0 -10 365 156 380 174 3 3 30
18 60 33 73 38 304 182 464 290 137 93 141 94 169 38 13 -26 80 -149 125 -231
26 -48 76 -141 137 -255 21 -38 48 -88 60 -110 12 -22 49 -89 81 -150 31 -60
62 -113 67 -116 5 -3 9 -10 9 -15 1 -16 22 -59 33 -66 5 -4 7 -8 2 -8 -4 0 4
-18 18 -40 14 -22 25 -46 25 -54 0 -8 4 -16 8 -18 11 -4 163 -315 202 -412
l31 -79 -40 -36 c-22 -20 -70 -56 -106 -81 -37 -25 -75 -53 -86 -62 -10 -10
-23 -18 -29 -18 -6 0 -10 -4 -10 -10 0 -5 -4 -10 -10 -10 -9 0 -147 -93 -177
-119 -7 -6 -15 -11 -18 -11 -3 0 -36 -23 -75 -50 -39 -28 -74 -50 -79 -50 -5
0 -11 -4 -13 -8 -1 -4 -77 -57 -168 -117 -91 -61 -166 -113 -168 -117 -2 -5
-7 -8 -12 -8 -4 0 -44 -25 -89 -55 -45 -30 -85 -55 -90 -55 -5 0 -11 -4 -13
-8 -1 -4 -79 -56 -173 -116 -93 -60 -199 -128 -235 -151 -36 -23 -85 -52 -110
-66 -25 -13 -47 -27 -50 -30 -10 -12 -237 -109 -260 -111 -3 0 -9 -2 -15 -4
-77 -25 -259 -55 -361 -59 -28 -1 -55 -5 -61 -8 -5 -3 -15 -2 -23 3 -7 4 -23
4 -36 0 -12 -5 -25 -6 -28 -3 -3 3 -32 7 -63 8 -79 3 -178 15 -215 25 -16 5
-33 9 -37 8 -26 -7 -249 75 -376 137 -262 129 -460 294 -676 563 -38 47 -136
204 -177 284 -51 98 -130 285 -138 326 -3 13 -11 40 -19 60 -8 20 -17 48 -19
62 -3 14 -13 57 -21 95 -9 39 -18 85 -21 104 -3 18 -7 42 -9 53 -20 104 -27
456 -11 583 5 39 10 84 12 100 1 17 3 30 4 30 1 0 3 11 6 25 15 88 30 151 66
275 48 167 66 252 61 291 -4 30 -85 114 -109 114 -7 0 -14 3 -16 8 -2 6 -101
73 -159 107 -9 6 -27 17 -40 26 -37 25 -250 157 -549 340 -151 92 -145 89
-209 129 -31 19 -68 41 -83 50 -51 28 -143 83 -183 109 -22 14 -42 26 -45 26
-3 0 -23 12 -45 26 -51 33 -265 158 -330 194 -27 15 -57 34 -66 41 -8 8 -19
14 -23 14 -4 0 -30 15 -59 33 -29 18 -77 45 -107 61 -30 16 -57 32 -60 35 -3
3 -21 14 -40 25 -261 138 -281 145 -432 150 -45 2 -102 -1 -127 -6 -148 -28
-170 -14 -274 175 -15 26 -34 59 -43 72 -16 24 -15 25 33 47 26 13 51 28 55
33 4 6 8 6 8 1 0 -5 6 -4 13 1 13 11 88 31 152 41 54 8 297 8 365 -1 102 -13
183 -41 275 -95 17 -9 65 -37 107 -60 43 -24 80 -47 83 -53 4 -5 11 -7 16 -4
5 4 9 1 9 -4 0 -6 4 -11 9 -11 5 0 85 -46 178 -102 92 -55 177 -106 188 -112
11 -6 31 -19 45 -27 19 -13 300 -184 444 -272 11 -7 75 -47 143 -89 69 -43
129 -78 134 -78 5 0 9 -4 9 -9 0 -5 6 -11 13 -13 10 -2 63 -34 262 -158 22
-14 152 -93 215 -130 14 -9 44 -28 67 -43 24 -15 45 -27 47 -27 3 0 32 -18 65
-40 33 -22 62 -40 65 -40 3 0 48 -27 101 -60 53 -33 99 -60 102 -60 3 0 17 -8
31 -18 15 -11 59 -36 97 -57 39 -21 90 -50 115 -64 160 -88 384 -188 463 -207
9 -2 25 -6 35 -8 66 -16 117 -27 148 -32 20 -3 45 -7 55 -9 117 -23 413 -23
544 0 30 5 81 13 121 20 41 6 190 46 227 60 20 8 37 12 37 9 0 -4 6 -2 13 4 6
5 41 20 77 32 139 48 404 197 482 271 47 44 45 59 -22 175 -28 48 -50 88 -50
89 0 2 -21 40 -47 86 -25 46 -59 109 -75 139 -16 30 -44 82 -62 115 -18 33
-45 85 -61 115 -16 30 -35 63 -43 73 -8 9 -11 17 -7 17 4 0 2 8 -6 18 -8 9
-19 26 -25 37 -17 31 -103 191 -150 280 -62 117 -86 161 -131 245 -22 41 -61
113 -86 160 -24 47 -64 121 -87 165 -94 175 -129 249 -124 257 15 25 231 145
275 153 10 2 24 -11 39 -38 12 -23 37 -69 55 -102 18 -33 49 -91 70 -130 21
-38 54 -99 74 -135 20 -36 45 -83 56 -105 11 -22 22 -42 25 -45 5 -5 105 -195
124 -237 6 -13 14 -23 19 -23 4 0 7 -7 7 -15 0 -8 14 -37 30 -65 17 -28 30
-53 30 -56 0 -2 11 -22 25 -44 14 -22 25 -46 25 -54 0 -8 4 -16 9 -18 5 -1 27
-37 48 -78 52 -98 110 -205 133 -244 11 -17 30 -53 44 -81 14 -27 39 -72 56
-100 16 -27 33 -57 37 -65 16 -36 127 -216 137 -222 13 -8 55 0 74 15 6 5 12
6 12 3 0 -13 122 79 151 113 22 27 26 38 18 53 -5 10 -7 18 -3 18 3 0 2 6 -3
13 -10 12 -53 92 -153 282 -29 55 -60 114 -70 130 -9 17 -43 80 -75 140 -32
61 -70 133 -85 160 -15 28 -44 80 -64 118 -121 224 -168 312 -207 383 -15 28
-47 86 -70 130 -97 183 -136 253 -151 272 -6 6 -7 12 -3 12 4 0 2 6 -4 14 -11
13 -30 47 -101 181 -20 39 -49 91 -64 118 -14 26 -38 68 -53 95 -14 26 -35 65
-47 87 -37 70 -35 70 -132 3z"/>
</g>
</svg>
