<?xml version="1.0" encoding="UTF-8"?>
<svg version="1.1" viewBox="0 0 485.63 323.09" xml:space="preserve" xmlns="http://www.w3.org/2000/svg">
	<defs>
		
		
		
		
		
		
		
		
		
		
		
		
		
		
		
		
		<clipPath id="clipPath408">
			<path d="m0 500h500v-500h-500z"/>
		</clipPath>
		<clipPath id="clipPath416">
			<path d="m237.06 253.69h21.367v-8.32h-21.367z"/>
		</clipPath>
		<clipPath id="clipPath434">
			<path d="m0 500h500v-500h-500z"/>
		</clipPath>
		<clipPath id="clipPath442">
			<path d="m228.4 227.01h35.864v-4.333h-35.864z"/>
		</clipPath>
		<clipPath id="clipPath456">
			<path d="m228.4 227.01h17.931v-4.333h-17.931z"/>
		</clipPath>
		<clipPath id="clipPath474">
			<path d="m0 500h500v-500h-500z"/>
		</clipPath>
		<clipPath id="clipPath482">
			<path d="m87.678 334.52h315.53v-83.651h-315.53z"/>
		</clipPath>
		<clipPath id="clipPath498">
			<path d="m297.71 331.26h102.27v-77.126h-102.27z"/>
		</clipPath>
		<clipPath id="clipPath514">
			<path d="m314.61 320.14h26.337v-4.278h-26.337z"/>
		</clipPath>
		<clipPath id="clipPath530">
			<path d="m314.61 320.14h26.337v-4.278h-26.337z"/>
		</clipPath>
		<clipPath id="clipPath534">
			<path d="m314.61 320.14h26.337v-4.278h-26.337z"/>
		</clipPath>
		<clipPath id="clipPath558">
			<path d="m354 323.61h26.337v-4.278h-26.337z"/>
		</clipPath>
		<clipPath id="clipPath574">
			<path d="m354 323.61h26.337v-4.278h-26.337z"/>
		</clipPath>
		<clipPath id="clipPath578">
			<path d="m354 323.61h26.337v-4.278h-26.337z"/>
		</clipPath>
		<clipPath id="clipPath606">
			<path d="m321.17 311.26h15.876v-16.04h-15.876z"/>
		</clipPath>
		<clipPath id="clipPath626">
			<path d="m356.27 317.64h24.641v-24.83h-24.641z"/>
		</clipPath>
		<clipPath id="clipPath654">
			<path d="m326.18 269.39h7.88v-7.249h-7.88z"/>
		</clipPath>
		<clipPath id="clipPath670">
			<path d="m340.04 279.26h8.63v-15.83h-8.63z"/>
		</clipPath>
		<clipPath id="clipPath686">
			<path d="m354.48 282.35h8.788v-17.637h-8.788z"/>
		</clipPath>
		<clipPath id="clipPath702">
			<path d="m369.41 279.85h8.457v-13.854h-8.457z"/>
		</clipPath>
		<clipPath id="clipPath734">
			<path d="m90.964 331.26h103.75v-77.126h-103.75z"/>
		</clipPath>
		<clipPath id="clipPath770">
			<path d="m121.98 315.18h34.236v-11.143h-34.236z"/>
		</clipPath>
		<clipPath id="clipPath798">
			<path d="m157.96 320.74h5.596v-4.981h-5.596z"/>
		</clipPath>
		<clipPath id="clipPath834">
			<path d="m136.32 295.76h34.237v-11.143h-34.237z"/>
		</clipPath>
		<clipPath id="clipPath862">
			<path d="m172.3 301.32h5.596v-4.981h-5.596z"/>
		</clipPath>
		<clipPath id="clipPath898">
			<path d="m129.46 276.95h34.237v-11.755h-34.237z"/>
		</clipPath>
		<clipPath id="clipPath926">
			<path d="m165.85 278.8h1.061v-2.62h-1.061z"/>
		</clipPath>
		<clipPath id="clipPath942">
			<path d="m167.24 280.97h3.909v-5.356h-3.909z"/>
		</clipPath>
		<clipPath id="clipPath958">
			<path d="m194.73 322.51h103.01v-68.64h-103.01z"/>
		</clipPath>
		<clipPath id="clipPath974">
			<path d="m195 277.3h3.396v-23.112h-3.396z"/>
		</clipPath>
		<clipPath id="clipPath990">
			<path d="m191.97 311.97h4.189v-32.167h-4.189z"/>
		</clipPath>
		<clipPath id="clipPath1006">
			<path d="m191.07 322.19h2.064v-7.888h-2.064z"/>
		</clipPath>
		<clipPath id="clipPath1022">
			<path d="m297.14 287.14h4.257v-32.946h-4.257z"/>
		</clipPath>
		<clipPath id="clipPath1038">
			<path d="m294.67 315.3h3.649v-26h-3.649z"/>
		</clipPath>
		<clipPath id="clipPath1054">
			<path d="m294.07 322.19h1.72v-3.944h-1.72z"/>
		</clipPath>
		<clipPath id="clipPath1086">
			<path d="m200.9 318.8h25.633v-9.5h-25.633z"/>
		</clipPath>
		<clipPath id="clipPath1138">
			<path d="m218.6 313.05h45.489v-27.584h-45.489z"/>
		</clipPath>
		<clipPath id="clipPath1154">
			<path d="m225.08 313.05h21.211v-27.584h-21.211z"/>
		</clipPath>
		<clipPath id="clipPath1174">
			<path d="m225.08 313.05h21.211v-27.584h-21.211z"/>
		</clipPath>
		<clipPath id="clipPath1190">
			<path d="m228.5 285.47h45.488v-27.583h-45.488z"/>
		</clipPath>
		<clipPath id="clipPath1222">
			<path d="m217.99 300.42h8.479v-8.446h-8.479z"/>
		</clipPath>
		<clipPath id="clipPath1258">
			<path d="m258.93 306.52h8.479v-8.446h-8.479z"/>
		</clipPath>
		<clipPath id="clipPath1294">
			<path d="m218.54 279.84h8.478v-8.446h-8.478z"/>
		</clipPath>
		<clipPath id="clipPath1326">
			<path d="m267.87 227.72h62.026v-5.042h-62.026z"/>
		</clipPath>
		<clipPath id="clipPath1342">
			<path d="m267.87 227.72h31.013v-5.042h-31.013z"/>
		</clipPath>
		<clipPath id="clipPath1358">
			<path d="m363.46 331.26h34.778v-71.859h-34.778z"/>
		</clipPath>
		<clipPath id="clipPath1374">
			<path d="m240.14 322.51h50.569v-68.64h-50.569z"/>
		</clipPath>
		<clipPath id="clipPath1390">
			<path d="m144.08 324.66h45.518v-68.385h-45.518z"/>
		</clipPath>
		<clipPath id="clipPath1406">
			<path d="m0 500h500v-500h-500z"/>
		</clipPath>
		<clipPath id="clipPath1418">
			<path d="m150.24 218.79h199.26v-5.974h-199.26z"/>
		</clipPath>
		<clipPath id="clipPath1434">
			<path d="m150.24 218.79h90.2v-5.974h-90.2z"/>
		</clipPath>
		<clipPath id="clipPath1454">
			<path d="m144.15 222.68h96.29v-5h-96.29z"/>
		</clipPath>
		<clipPath id="clipPath1474">
			<path d="m153.24 212.8h84.2v-120.21h-84.2z"/>
		</clipPath>
		<clipPath id="clipPath1478">
			<path d="m153.24 212.8h84.2v-120.21h-84.2z"/>
		</clipPath>
		<clipPath id="clipPath1502">
			<path d="m153.28 212.8h84.122v-6.758h-84.122z"/>
		</clipPath>
		<clipPath id="clipPath1522">
			<path d="m260.9 212.8h84.2v-120.21h-84.2z"/>
		</clipPath>
		<clipPath id="clipPath1538">
			<path d="m260.94 212.8h84.122v-6.758h-84.122z"/>
		</clipPath>
		<clipPath id="clipPath1554">
			<path d="m0 500h500v-500h-500z"/>
		</clipPath>
		<clipPath id="clipPath1566">
			<path d="m127.44 188.09h94.193v-95.889h-94.193z"/>
		</clipPath>
		<clipPath id="clipPath1582">
			<path d="m127.44 100.69h94.193v-8.49h-94.193z"/>
		</clipPath>
		<clipPath id="clipPath1602">
			<path d="m187.84 183.59h29.288v-86.889h-29.288z"/>
		</clipPath>
		<clipPath id="clipPath1618">
			<path d="m190.74 177.34h23.5v-6.25h-23.5z"/>
		</clipPath>
		<clipPath id="clipPath1632">
			<path d="m190.74 169.84h23.5v-6.25h-23.5z"/>
		</clipPath>
		<clipPath id="clipPath1650">
			<path d="m199.86 143.52h5.262v-6.222h-5.262z"/>
		</clipPath>
		<clipPath id="clipPath1742">
			<path d="m0 500h500v-500h-500z"/>
		</clipPath>
		<clipPath id="clipPath1754">
			<path d="m315.62 235.09h18.403v-7.747h-18.403z"/>
		</clipPath>
		<clipPath id="clipPath1794">
			<path d="m347.61 277.06h5.183v-1.71h-5.183z"/>
		</clipPath>
		<clipPath id="clipPath1834">
			<path d="m349.79 275.45h19.167v-6.112h-19.167z"/>
		</clipPath>
		<clipPath id="clipPath1854">
			<path d="m340.31 266.18h8.49v-24.964h-8.49z"/>
		</clipPath>
		<clipPath id="clipPath1882">
			<path d="m327.5 254.15h13.042v-13.312h-13.042z"/>
		</clipPath>
		<clipPath id="clipPath1902">
			<path d="m350.08 121.84h9.633v-10.942h-9.633z"/>
		</clipPath>
		<clipPath id="clipPath1922">
			<path d="m336.83 196.84h53.83v-81h-53.83z"/>
		</clipPath>
		<clipPath id="clipPath1942">
			<path d="m348.18 119.09h13.256v-5.977h-13.256z"/>
		</clipPath>
		<clipPath id="clipPath1974">
			<path d="m330.3 119.15h11.162v-12.386h-11.162z"/>
		</clipPath>
		<clipPath id="clipPath1998">
			<path d="m329.21 116.76h13.333v-7.666h-13.333z"/>
		</clipPath>
		<clipPath id="clipPath2026">
			<path d="m0 500h500v-500h-500z"/>
		</clipPath>
		<clipPath id="clipPath2038">
			<path d="m353.51 146.09h64.75v-43h-64.75z"/>
		</clipPath>
		<clipPath id="clipPath2058">
			<path d="m379.72 171.66h12.326v-7.317h-12.326z"/>
		</clipPath>
		<clipPath id="clipPath2084">
			<path d="m332.79 181.09h97.967v-12.031h-97.967z"/>
		</clipPath>
		<clipPath id="clipPath2104">
			<path d="m332.79 181.04h56.596v-11.973h-56.596z"/>
		</clipPath>
		<clipPath id="clipPath2124">
			<path d="m387.88 242.3h54.017v-69.953h-54.017z"/>
		</clipPath>
		<clipPath id="clipPath2144">
			<path d="m387.88 242.3h19.184v-69.899h-19.184z"/>
		</clipPath>
		<clipPath id="clipPath2164">
			<path d="m355.2 206.04h35.514v-32.679h-35.514z"/>
		</clipPath>
		<clipPath id="clipPath2180">
			<path d="m355.2 206.04h13.284v-9.202h-13.284z"/>
		</clipPath>
		<clipPath id="clipPath2200">
			<path d="m336.89 206.84h48.212v-6h-48.212z"/>
		</clipPath>
	</defs>
	<namedview bordercolor="#666666" borderopacity="1.0" pagecolor="#ffffff" showgrid="false"/>
	<g transform="matrix(1.3333 0 0 -1.3333 -114.24 446.03)">
		
		
		<path d="m396.59 110.54h19.192v0.25h-19.192z" fill="#ececec"/>
		<path d="m104.56 108.86h6.333v0.25h-6.333z" fill="#ececec"/>
		
		<g transform="translate(249.43 225.2)">
			<path d="m0 0h-18.74l9 28.497h18.74z" fill="#007cff"/>
		</g>
		
			<g clip-path="url(#clipPath408)">
				
					
					
						<g clip-path="url(#clipPath416)" opacity=".2">
							<g transform="translate(237.06 245.37)">
								<path d="m0 0h18.74l2.627 8.319h-18.74z"/>
							</g>
						</g>
					
				
			</g>
		
		<path d="m264.26 222.68h-35.864v4.333h35.864z" fill="#007cff"/>
		
			<g clip-path="url(#clipPath434)">
				
					
					
						<g clip-path="url(#clipPath442)" opacity=".5">
							<path d="m264.26 222.68h-35.864v4.333h35.864z" fill="#fff"/>
						</g>
					
				
				
					
					
						<g clip-path="url(#clipPath456)" opacity=".60001">
							<path d="m246.33 222.68h-17.932v4.333h17.932z" fill="#fff"/>
						</g>
					
				
			</g>
		
		<g transform="translate(403.21 259.88)">
			<path d="m0 0-6.53 74.64-102.22-9.012h-103l-103.79 9.012-2-2 6.53-74.64 103.79-9.012h103l102.21 9.012z" fill="#007cff"/>
		</g>
		
			<g clip-path="url(#clipPath474)">
				
					
					
						<g clip-path="url(#clipPath482)" opacity=".2">
							<g transform="translate(403.21 259.88)">
								<path d="m0 0-6.53 74.64-102.22-9.012h-103l-103.79 9.012 6.53-74.64 103.79-9.012h103z" fill="#fff"/>
							</g>
						</g>
					
				
				
					
					
						<g clip-path="url(#clipPath498)" opacity=".8">
							<g transform="translate(393.97 331.26)">
								<path d="m0 0 6.005-68.64-96.26-8.486-6.005 68.64z" fill="#fff"/>
							</g>
						</g>
					
				
				
					
					
						<g clip-path="url(#clipPath514)" opacity=".5">
							<g transform="translate(315.77 315.86)">
								<path d="m0 0c-0.585-0.052-1.102 0.385-1.153 0.975-0.052 0.589 0.381 1.109 0.966 1.16l24.209 2.135c0.586 0.051 1.102-0.385 1.154-0.975 0.051-0.589-0.382-1.109-0.967-1.161z" fill="#1a2e35"/>
							</g>
						</g>
					
				
				
					
					
						<g clip-path="url(#clipPath530)" opacity=".5">
							
								
								
									<g clip-path="url(#clipPath534)" opacity=".5">
										<g transform="translate(315.77 315.86)">
											<path d="m0 0c-0.585-0.052-1.102 0.385-1.153 0.975-0.052 0.589 0.381 1.109 0.966 1.16l24.209 2.135c0.586 0.051 1.102-0.385 1.154-0.975 0.051-0.589-0.382-1.109-0.967-1.161z" fill="#fff"/>
										</g>
									</g>
								
							
						</g>
					
				
				
					
					
						<g clip-path="url(#clipPath558)" opacity=".5">
							<g transform="translate(355.16 319.33)">
								<path d="m0 0c-0.585-0.051-1.102 0.385-1.153 0.975-0.052 0.589 0.381 1.109 0.966 1.161l24.209 2.134c0.586 0.052 1.102-0.384 1.153-0.974 0.052-0.59-0.381-1.11-0.966-1.161z" fill="#1a2e35"/>
							</g>
						</g>
					
				
				
					
					
						<g clip-path="url(#clipPath574)" opacity=".5">
							
								
								
									<g clip-path="url(#clipPath578)" opacity=".5">
										<g transform="translate(355.16 319.33)">
											<path d="m0 0c-0.585-0.051-1.102 0.385-1.153 0.975-0.052 0.589 0.381 1.109 0.966 1.161l24.209 2.134c0.586 0.052 1.102-0.384 1.153-0.974 0.052-0.59-0.381-1.11-0.966-1.161z" fill="#fff"/>
										</g>
									</g>
								
							
						</g>
					
				
				<g transform="translate(341.47 302.84)">
					<path d="m0 0c0.598-6.83-4.413-12.852-11.19-13.449-6.778-0.597-12.757 4.455-13.354 11.285-0.598 6.83 4.412 12.851 11.19 13.449 6.777 0.597 12.756-4.455 13.354-11.285" fill="#007cff"/>
				</g>
				
					
					
						<g clip-path="url(#clipPath606)" opacity=".89999">
							<g transform="translate(323.87 295.34)">
								<path d="m0 0-1.399-0.123c-0.362-0.032-0.681 0.237-0.712 0.602l-0.579 6.616c-0.032 0.364 0.235 0.685 0.597 0.717l1.399 0.124c0.361 0.031 0.68-0.238 0.712-0.603l0.579-6.616c0.031-0.364-0.236-0.685-0.597-0.717" fill="#fff"/>
							</g>
							<g transform="translate(325.7 303.77)">
								<path d="m0 0c0.901 0.896 3.159 3.413 3.148 6.124-5e-3 1.331 1.831 1.895 2.497 0.745 0.5-0.861 0.618-2.514-0.284-5.598l3.457 0.305c0.924 0.082 1.807-0.397 2.25-1.218 0.259-0.479 0.344-1.034 0.241-1.57l-1.011-5.222c-0.225-1.162-1.274-1.973-2.446-1.89l-6.614 0.466c-0.548 0.038-0.988 0.473-1.035 1.025l-0.521 5.945c-0.029 0.33 0.084 0.655 0.318 0.888" fill="#fff"/>
							</g>
						</g>
					
				
				
					
					
						<g clip-path="url(#clipPath626)" opacity=".89999">
							<g transform="translate(380.86 306.31)">
								<path d="m0 0c-0.598 6.83-6.577 11.882-13.354 11.285-6.778-0.597-11.788-6.619-11.19-13.449 0.597-6.83 6.576-11.882 13.354-11.285 6.777 0.598 11.788 6.619 11.19 13.449" fill="#fff"/>
							</g>
						</g>
					
				
				<g transform="translate(362.22 310.61)">
					<path d="m0 0-1.399-0.124c-0.361-0.031-0.628-0.353-0.597-0.717l0.579-6.616c0.032-0.364 0.351-0.634 0.712-0.602l1.399 0.123c0.362 0.032 0.629 0.353 0.597 0.718l-0.579 6.616c-0.031 0.364-0.351 0.634-0.712 0.602" fill="#007cff"/>
				</g>
				<g transform="translate(365.49 302.64)">
					<path d="m0 0c1.043-0.725 3.704-2.807 4.163-5.479 0.226-1.312 2.131-1.545 2.588-0.297 0.343 0.936 0.172 2.584-1.251 5.462l3.457 0.305c0.923 0.081 1.71 0.707 2.004 1.593 0.172 0.518 0.159 1.079-0.036 1.588l-1.902 4.966c-0.423 1.105-1.597 1.72-2.737 1.433l-6.432-1.616c-0.533-0.134-0.89-0.639-0.841-1.19l0.52-5.946c0.029-0.33 0.196-0.631 0.467-0.819" fill="#007cff"/>
				</g>
				<g transform="translate(326.76 262.14)">
					<path d="m0 0-7.302-0.644-0.739 8.447 7.302 0.644z" fill="#007cff"/>
				</g>
				
					
					
						<g clip-path="url(#clipPath654)" opacity=".89999">
							<g transform="translate(334.06 262.78)">
								<path d="m0 0-7.302-0.644-0.577 6.606 7.301 0.643z" fill="#fff"/>
							</g>
						</g>
					
				
				
					
					
						<g clip-path="url(#clipPath670)" opacity=".89999">
							<g transform="translate(348.66 264.07)">
								<path d="m0 0-7.302-0.644-1.328 15.186 7.301 0.644z" fill="#fff"/>
							</g>
						</g>
					
				
				
					
					
						<g clip-path="url(#clipPath686)" opacity=".89999">
							<g transform="translate(363.27 265.36)">
								<path d="m0 0-7.301-0.644-1.487 16.994 7.302 0.644z" fill="#fff"/>
							</g>
						</g>
					
				
				
					
					
						<g clip-path="url(#clipPath702)" opacity=".89999">
							<g transform="translate(377.87 266.64)">
								<path d="m0 0-7.302-0.644-1.156 13.21 7.302 0.644z" fill="#fff"/>
							</g>
						</g>
					
				
				<g transform="translate(341.36 263.43)">
					<path d="m0 0-7.301-0.645-1.21 13.822 7.302 0.644z" fill="#007cff"/>
				</g>
				<g transform="translate(355.97 264.71)">
					<path d="m0 0-7.302-0.644-1.645 18.81 7.301 0.644z" fill="#007cff"/>
				</g>
				<g transform="translate(370.57 266)">
					<path d="m0 0-7.302-0.644-1.328 15.186 7.301 0.644z" fill="#007cff"/>
				</g>
				<g transform="translate(385.17 267.29)">
					<path d="m0 0-7.302-0.645-2.064 23.594 7.302 0.644z" fill="#007cff"/>
				</g>
				
					
					
						<g clip-path="url(#clipPath734)" opacity=".8">
							<g transform="translate(90.964 331.26)">
								<path d="m0 0 6.005-68.64 97.745-8.486-6.004 68.64z" fill="#fff"/>
							</g>
						</g>
					
				
				<g transform="translate(160.77 299.48)">
					<path d="m0 0-52.457 4.555c-2.21 0.192-4.157 2.125-4.349 4.318l-0.661 7.559c-0.192 2.193 1.444 3.815 3.654 3.623l52.457-4.555c2.21-0.192 4.156-2.125 4.349-4.318l0.661-7.558c0.192-2.193-1.444-3.816-3.654-3.624" fill="#fff"/>
				</g>
				<g transform="translate(116.99 310.97)">
					<path d="m0 0c0.229-2.623-1.728-4.563-4.371-4.334-2.643 0.23-4.972 2.542-5.202 5.166-0.229 2.623 1.727 4.564 4.371 4.334 2.643-0.229 4.973-2.542 5.202-5.166" fill="#007cff"/>
				</g>
				<g transform="translate(123.11 313.11)">
					<path d="m0 0c-0.574 0.05-1.08 0.552-1.129 1.122-0.05 0.569 0.375 0.991 0.949 0.941l32.15-2.792c0.574-0.049 1.08-0.552 1.13-1.121 0.049-0.57-0.375-0.991-0.95-0.941z" fill="#1a2e35"/>
				</g>
				<g transform="translate(123.76 305.67)">
					<path d="m0 0c-0.574 0.05-1.08 0.552-1.129 1.122-0.05 0.569 0.375 0.991 0.948 0.941l18.831-1.635c0.574-0.05 1.079-0.552 1.129-1.122 0.05-0.569-0.375-0.991-0.948-0.941z" fill="#1a2e35"/>
				</g>
				<g transform="translate(123.44 309.39)">
					<path d="m0 0c-0.574 0.05-1.079 0.552-1.129 1.122-0.05 0.569 0.375 0.99 0.949 0.941l27.269-2.368c0.574-0.05 1.08-0.552 1.13-1.121 0.05-0.57-0.375-0.991-0.949-0.942z" fill="#1a2e35"/>
				</g>
				
					
					
						<g clip-path="url(#clipPath770)" opacity=".5">
							<g transform="translate(123.11 313.11)">
								<path d="m0 0c-0.574 0.05-1.08 0.552-1.129 1.122-0.05 0.569 0.375 0.991 0.949 0.941l32.15-2.792c0.574-0.049 1.08-0.552 1.13-1.121 0.049-0.57-0.375-0.991-0.95-0.941z" fill="#fff"/>
							</g>
							<g transform="translate(123.76 305.67)">
								<path d="m0 0c-0.574 0.05-1.08 0.552-1.129 1.122-0.05 0.569 0.375 0.991 0.948 0.941l18.831-1.635c0.574-0.05 1.079-0.552 1.129-1.122 0.05-0.569-0.375-0.991-0.948-0.941z" fill="#fff"/>
							</g>
							<g transform="translate(123.44 309.39)">
								<path d="m0 0c-0.574 0.05-1.079 0.552-1.129 1.122-0.05 0.569 0.375 0.99 0.949 0.941l27.269-2.368c0.574-0.05 1.08-0.552 1.13-1.121 0.05-0.57-0.375-0.991-0.949-0.942z" fill="#fff"/>
							</g>
						</g>
					
				
				<g transform="translate(163.51 322.15)">
					<path d="m0 0-6.133 0.467c-0.843 0.064-1.459-0.563-1.377-1.402l0.502-5.102c0.082-0.836 0.829-1.566 1.67-1.633l1.775-0.141 0.87-1.245c0.296-0.422 0.887-0.464 1.098-0.077l0.624 1.146 1.765-0.14c0.845-0.067 1.465 0.561 1.382 1.401l-0.5 5.092c-0.083 0.838-0.833 1.57-1.676 1.634" fill="#007cff"/>
				</g>
				
					
					
						<g clip-path="url(#clipPath798)" opacity=".89999">
							<g transform="translate(158.79 318.01)">
								<path d="m0 0c-0.528 0.517-0.785 1.054-0.825 1.519-0.07 0.793 0.417 1.275 1.225 1.205 0.753-0.065 1.04-0.434 1.525-0.974 0.397 0.464 0.624 0.788 1.377 0.722 0.808-0.07 1.386-0.645 1.456-1.438 0.041-0.464-0.125-0.966-0.571-1.397l-1.912-1.887z" fill="#fff"/>
							</g>
						</g>
					
				
				<g transform="translate(175.11 280.06)">
					<path d="m0 0-52.457 4.555c-2.21 0.192-4.157 2.125-4.349 4.318l-0.661 7.559c-0.192 2.193 1.444 3.815 3.654 3.623l52.457-4.555c2.21-0.191 4.157-2.125 4.349-4.318l0.661-7.558c0.192-2.193-1.444-3.815-3.654-3.624" fill="#fff"/>
				</g>
				<g transform="translate(131.32 291.56)">
					<path d="m0 0c0.229-2.623-1.728-4.563-4.371-4.334-2.643 0.23-4.972 2.542-5.202 5.166-0.229 2.623 1.728 4.564 4.371 4.334 2.643-0.229 4.973-2.542 5.202-5.166" fill="#007cff"/>
				</g>
				<g transform="translate(137.45 293.69)">
					<path d="m0 0c-0.574 0.05-1.08 0.552-1.129 1.122-0.05 0.569 0.375 0.991 0.949 0.941l32.15-2.792c0.574-0.049 1.08-0.552 1.13-1.121 0.049-0.57-0.375-0.991-0.95-0.941z" fill="#1a2e35"/>
				</g>
				<g transform="translate(138.1 286.25)">
					<path d="m0 0c-0.574 0.05-1.08 0.552-1.129 1.122-0.05 0.569 0.375 0.991 0.948 0.941l18.831-1.635c0.574-0.05 1.079-0.552 1.129-1.122 0.05-0.569-0.375-0.991-0.948-0.941z" fill="#1a2e35"/>
				</g>
				<g transform="translate(137.78 289.97)">
					<path d="m0 0c-0.574 0.05-1.08 0.552-1.129 1.122-0.05 0.569 0.375 0.99 0.948 0.941l27.27-2.368c0.574-0.05 1.079-0.552 1.129-1.121 0.05-0.57-0.375-0.991-0.948-0.942z" fill="#1a2e35"/>
				</g>
				
					
					
						<g clip-path="url(#clipPath834)" opacity=".5">
							<g transform="translate(137.45 293.69)">
								<path d="m0 0c-0.574 0.05-1.08 0.552-1.129 1.122-0.05 0.569 0.375 0.991 0.949 0.941l32.15-2.792c0.574-0.049 1.08-0.552 1.13-1.121 0.049-0.57-0.375-0.991-0.95-0.941z" fill="#fff"/>
							</g>
							<g transform="translate(138.1 286.25)">
								<path d="m0 0c-0.574 0.05-1.08 0.552-1.129 1.122-0.05 0.569 0.375 0.991 0.948 0.941l18.831-1.635c0.574-0.05 1.079-0.552 1.129-1.122 0.05-0.569-0.375-0.991-0.948-0.941z" fill="#fff"/>
							</g>
							<g transform="translate(137.78 289.97)">
								<path d="m0 0c-0.574 0.05-1.08 0.552-1.129 1.122-0.05 0.569 0.375 0.99 0.948 0.941l27.27-2.368c0.574-0.05 1.079-0.552 1.129-1.121 0.05-0.57-0.375-0.991-0.948-0.942z" fill="#fff"/>
							</g>
						</g>
					
				
				<g transform="translate(177.85 302.73)">
					<path d="m0 0-6.133 0.467c-0.843 0.064-1.459-0.563-1.377-1.402l0.502-5.102c0.082-0.836 0.829-1.566 1.67-1.633l1.775-0.141 0.871-1.245c0.295-0.422 0.886-0.464 1.097-0.077l0.624 1.146 1.765-0.14c0.845-0.067 1.465 0.561 1.382 1.401l-0.5 5.092c-0.083 0.838-0.833 1.57-1.676 1.634" fill="#007cff"/>
				</g>
				
					
					
						<g clip-path="url(#clipPath862)" opacity=".89999">
							<g transform="translate(173.13 298.59)">
								<path d="m0 0c-0.528 0.517-0.785 1.054-0.826 1.519-0.069 0.793 0.417 1.275 1.225 1.205 0.753-0.065 1.041-0.434 1.525-0.974 0.397 0.464 0.624 0.788 1.377 0.722 0.808-0.07 1.387-0.645 1.457-1.438 0.04-0.464-0.126-0.966-0.571-1.397l-1.913-1.887z" fill="#fff"/>
							</g>
						</g>
					
				
				<g transform="translate(168.26 261.25)">
					<path d="m0 0-52.457 4.555c-2.21 0.191-4.156 2.125-4.348 4.318l-0.662 7.558c-0.192 2.194 1.445 3.816 3.654 3.624l52.457-4.555c2.21-0.192 4.157-2.125 4.349-4.318l0.661-7.559c0.192-2.192-1.444-3.814-3.654-3.623" fill="#fff"/>
				</g>
				<g transform="translate(124.47 272.75)">
					<path d="m0 0c0.229-2.624-1.727-4.564-4.371-4.334-2.643 0.229-4.972 2.542-5.202 5.165-0.229 2.624 1.728 4.564 4.371 4.335 2.643-0.23 4.973-2.542 5.202-5.166" fill="#007cff"/>
				</g>
				<g transform="translate(130.6 274.88)">
					<path d="m0 0c-0.574 0.05-1.08 0.552-1.129 1.122-0.05 0.569 0.375 0.99 0.948 0.941l32.151-2.792c0.574-0.05 1.079-0.552 1.129-1.122 0.05-0.569-0.375-0.99-0.949-0.941z" fill="#1a2e35"/>
				</g>
				<g transform="translate(131.25 267.44)">
					<path d="m0 0c-0.574 0.05-1.08 0.552-1.129 1.121-0.05 0.57 0.375 0.991 0.949 0.942l25.884-2.248c0.574-0.049 1.079-0.551 1.129-1.122 0.05-0.569-0.375-0.99-0.949-0.94z" fill="#1a2e35"/>
				</g>
				<g transform="translate(130.92 271.16)">
					<path d="m0 0c-0.574 0.05-1.08 0.552-1.129 1.122-0.05 0.569 0.375 0.99 0.948 0.941l23.24-2.018c0.573-0.05 1.079-0.552 1.129-1.122 0.05-0.569-0.375-0.99-0.949-0.941z" fill="#1a2e35"/>
				</g>
				
					
					
						<g clip-path="url(#clipPath898)" opacity=".5">
							<g transform="translate(130.6 274.88)">
								<path d="m0 0c-0.574 0.05-1.08 0.552-1.129 1.122-0.05 0.569 0.375 0.99 0.948 0.941l32.151-2.792c0.574-0.05 1.079-0.552 1.129-1.122 0.05-0.569-0.375-0.99-0.949-0.941z" fill="#fff"/>
							</g>
							<g transform="translate(131.25 267.44)">
								<path d="m0 0c-0.574 0.05-1.08 0.552-1.129 1.121-0.05 0.57 0.375 0.991 0.949 0.942l25.884-2.248c0.574-0.049 1.079-0.551 1.129-1.122 0.05-0.569-0.375-0.99-0.949-0.94z" fill="#fff"/>
							</g>
							<g transform="translate(130.92 271.16)">
								<path d="m0 0c-0.574 0.05-1.08 0.552-1.129 1.122-0.05 0.569 0.375 0.99 0.948 0.941l23.24-2.018c0.573-0.05 1.079-0.552 1.129-1.122 0.05-0.569-0.375-0.99-0.949-0.941z" fill="#fff"/>
							</g>
						</g>
					
				
				<g transform="translate(171.17 281.91)">
					<path d="m0 0-6.133 0.467c-0.843 0.064-1.459-0.563-1.377-1.402l0.502-5.102c0.082-0.836 0.829-1.566 1.67-1.633l1.775-0.141 0.87-1.245c0.296-0.422 0.887-0.464 1.098-0.077l0.624 1.146 1.765-0.14c0.845-0.067 1.465 0.561 1.382 1.401l-0.501 5.092c-0.082 0.838-0.832 1.57-1.675 1.634" fill="#007cff"/>
				</g>
				
					
					
						<g clip-path="url(#clipPath926)" opacity=".89999">
							<g transform="translate(166.49 276.19)">
								<path d="m0 0c-0.25 0.022-0.471 0.241-0.493 0.49l-0.15 1.717c-0.022 0.249 0.164 0.432 0.414 0.411 0.25-0.022 0.471-0.242 0.493-0.49l0.15-1.717c0.022-0.249-0.164-0.432-0.414-0.411" fill="#fff"/>
							</g>
						</g>
					
				
				
					
					
						<g clip-path="url(#clipPath942)" opacity=".89999">
							<g transform="translate(167.34 278.8)">
								<path d="m0 0c0.302 0.239 1.059 0.926 1.057 1.807-1e-3 0.432 0.613 0.51 0.836 0.098 0.167-0.309 0.206-0.852-0.097-1.801l1.157-0.101c0.31-0.027 0.606-0.233 0.754-0.525 0.086-0.171 0.114-0.356 0.079-0.524l-0.34-1.638c-0.076-0.365-0.428-0.567-0.821-0.473l-2.214 0.533c-0.183 0.044-0.33 0.211-0.347 0.393l-0.171 1.96c-9e-3 0.11 0.028 0.209 0.107 0.271" fill="#fff"/>
							</g>
						</g>
					
				
				
					
					
						<g clip-path="url(#clipPath958)" opacity=".8">
							<g transform="translate(194.73 322.51)">
								<path d="m0 0 6.005-68.64h97.003l-6.005 68.64z" fill="#fff"/>
							</g>
						</g>
					
				
				
					
					
						<g clip-path="url(#clipPath974)" opacity=".2">
							<g transform="translate(197.71 254.19)">
								<path d="m0 0c-0.414 0-0.779 0.336-0.815 0.75l-1.892 21.613c-0.036 0.414 0.271 0.75 0.685 0.75s0.779-0.336 0.815-0.75l1.892-21.613c0.036-0.414-0.271-0.75-0.685-0.75"/>
							</g>
						</g>
					
				
				
					
					
						<g clip-path="url(#clipPath990)" opacity=".2">
							<g transform="translate(195.47 279.8)">
								<path d="m0 0c-0.414 0-0.779 0.336-0.815 0.75l-2.684 30.667c-0.036 0.414 0.27 0.75 0.685 0.75 0.414 0 0.779-0.336 0.815-0.75l2.684-30.667c0.036-0.414-0.271-0.75-0.685-0.75"/>
							</g>
						</g>
					
				
				
					
					
						<g clip-path="url(#clipPath1006)" opacity=".2">
							<g transform="translate(192.45 314.3)">
								<path d="m0 0c-0.414 0-0.779 0.336-0.815 0.75l-0.56 6.388c-0.036 0.414 0.271 0.75 0.685 0.75s0.779-0.336 0.815-0.75l0.56-6.388c0.036-0.414-0.27-0.75-0.685-0.75"/>
							</g>
						</g>
					
				
				
					
					
						<g clip-path="url(#clipPath1022)" opacity=".2">
							<g transform="translate(300.71 254.19)">
								<path d="m0 0c-0.414 0-0.779 0.336-0.815 0.75l-2.752 31.446c-0.036 0.414 0.271 0.75 0.685 0.75s0.779-0.336 0.815-0.75l2.752-31.446c0.036-0.414-0.271-0.75-0.685-0.75"/>
							</g>
						</g>
					
				
				
					
					
						<g clip-path="url(#clipPath1038)" opacity=".2">
							<g transform="translate(297.64 289.3)">
								<path d="m0 0c-0.415 0-0.779 0.336-0.816 0.75l-2.143 24.5c-0.037 0.414 0.27 0.75 0.684 0.75s0.779-0.336 0.816-0.75l2.143-24.5c0.037-0.414-0.27-0.75-0.684-0.75"/>
							</g>
						</g>
					
				
				
					
					
						<g clip-path="url(#clipPath1054)" opacity=".2">
							<g transform="translate(295.1 318.25)">
								<path d="m0 0c-0.415 0-0.779 0.336-0.816 0.75l-0.214 2.444c-0.036 0.414 0.271 0.75 0.685 0.75s0.779-0.336 0.815-0.75l0.214-2.444c0.037-0.414-0.27-0.75-0.684-0.75"/>
							</g>
						</g>
					
				
				<g transform="translate(280.42 292.29)">
					<path d="m0 0c-0.05 0.57 0.371 1.031 0.941 1.031 0.569 0 1.071-0.461 1.122-1.031l1.186-13.563c0.05-0.569-0.372-1.031-0.941-1.031-0.57 0-1.072 0.462-1.121 1.031z" fill="#007cff"/>
				</g>
				<g transform="translate(202.03 316.74)">
					<path d="m0 0c-0.569 0-1.071 0.461-1.121 1.031s0.371 1.032 0.941 1.032h23.562c0.57 0 1.072-0.462 1.122-1.032s-0.372-1.031-0.942-1.031z" fill="#1a2e35"/>
				</g>
				<g transform="translate(202.68 309.3)">
					<path d="m0 0c-0.569 0-1.072 0.461-1.122 1.031-0.049 0.57 0.372 1.032 0.942 1.032h19.562c0.57 0 1.072-0.462 1.121-1.032 0.05-0.57-0.371-1.031-0.941-1.031z" fill="#1a2e35"/>
				</g>
				<g transform="translate(202.35 313.02)">
					<path d="m0 0c-0.57 0-1.072 0.461-1.122 1.031-0.049 0.57 0.372 1.032 0.941 1.032h15.563c0.57 0 1.072-0.462 1.121-1.032 0.05-0.57-0.371-1.031-0.94-1.031z" fill="#1a2e35"/>
				</g>
				
					
					
						<g clip-path="url(#clipPath1086)" opacity=".5">
							<g transform="translate(202.03 316.74)">
								<path d="m0 0c-0.569 0-1.071 0.461-1.121 1.031s0.371 1.032 0.941 1.032h23.562c0.57 0 1.072-0.462 1.122-1.032s-0.372-1.031-0.942-1.031z" fill="#fff"/>
							</g>
							<g transform="translate(202.68 309.3)">
								<path d="m0 0c-0.569 0-1.072 0.461-1.122 1.031-0.049 0.57 0.372 1.032 0.942 1.032h19.562c0.57 0 1.072-0.462 1.121-1.032 0.05-0.57-0.371-1.031-0.941-1.031z" fill="#fff"/>
							</g>
							<g transform="translate(202.35 313.02)">
								<path d="m0 0c-0.57 0-1.072 0.461-1.122 1.031-0.049 0.57 0.372 1.032 0.941 1.032h15.563c0.57 0 1.072-0.462 1.121-1.032 0.05-0.57-0.371-1.031-0.94-1.031z" fill="#fff"/>
							</g>
						</g>
					
				
				<g transform="translate(286.05 300.74)">
					<path d="m0 0c0.258-2.947-1.922-5.337-4.87-5.337-2.947 0-5.546 2.39-5.803 5.337-0.258 2.947 1.922 5.336 4.869 5.336 2.948 0 5.546-2.389 5.804-5.336" fill="#007cff"/>
				</g>
				<g transform="translate(278.09 298.2)">
					<path d="m0 0c-0.325 0-0.612 0.264-0.64 0.589l-0.197 2.246c-0.028 0.326 0.212 0.589 0.538 0.589 0.325 0 0.611-0.263 0.64-0.589l0.197-2.246c0.028-0.325-0.213-0.589-0.538-0.589" fill="#fff"/>
				</g>
				<g transform="translate(279.19 301.74)">
					<path d="m0 0c0.392 0.35 1.375 1.342 1.371 2.503-2e-3 0.57 0.796 0.743 1.086 0.225 0.216-0.388 0.267-1.1-0.125-2.386h1.502c0.402 0 0.787-0.238 0.979-0.607 0.112-0.215 0.149-0.456 0.104-0.681l-0.441-2.198c-0.098-0.489-0.555-0.797-1.064-0.717l-2.876 0.449c-0.238 0.037-0.429 0.24-0.45 0.478l-0.225 2.565c-0.012 0.143 0.037 0.278 0.139 0.369" fill="#fff"/>
				</g>
				<g transform="translate(288.71 270.28)">
					<path d="m0 0c-0.258 2.947-2.856 5.336-5.803 5.336-2.948 0-5.128-2.389-4.87-5.336 0.257-2.947 2.856-5.337 5.803-5.337 2.948 0 5.128 2.39 4.87 5.337" fill="#007cff"/>
				</g>
				<g transform="translate(280.31 272.83)">
					<path d="m0 0c-0.325 0-0.565-0.264-0.537-0.589l0.196-2.247c0.029-0.325 0.316-0.589 0.641-0.589s0.565 0.264 0.537 0.589l-0.197 2.247c-0.028 0.325-0.315 0.589-0.64 0.589" fill="#fff"/>
				</g>
				<g transform="translate(282.03 269.29)">
					<path d="m0 0c0.453-0.35 1.609-1.342 1.809-2.503 0.097-0.571 0.926-0.743 1.125-0.225 0.149 0.388 0.075 1.1-0.543 2.386h1.504c0.401 0 0.744 0.238 0.872 0.607 0.074 0.214 0.069 0.456-0.016 0.681l-0.825 2.198c-0.184 0.489-0.694 0.797-1.19 0.717l-2.797-0.449c-0.232-0.037-0.387-0.24-0.366-0.478l0.224-2.565c0.013-0.143 0.085-0.278 0.203-0.369" fill="#fff"/>
				</g>
				<g transform="translate(273.88 285.47)">
					<path d="m0 0c1.333-15.234-9.937-27.583-25.17-27.583-15.234 0-28.664 12.349-29.997 27.583-1.332 15.234 9.937 27.583 25.17 27.583 15.234 0 28.664-12.349 29.997-27.583" fill="#007cff"/>
				</g>
				
					
					
						<g clip-path="url(#clipPath1138)" opacity=".60001">
							<g transform="translate(264.09 304.97)">
								<path d="m0 0c-5.428 4.992-12.594 8.079-20.211 8.079-15.234 0-26.503-12.35-25.17-27.583h27.583z" fill="#fff"/>
							</g>
						</g>
					
				
				
					
					
						<g clip-path="url(#clipPath1154)" opacity=".2">
							<g transform="translate(225.08 304.97)">
								<path d="M 0,0 21.21,-19.504 18.797,8.079 C 11.18,8.079 4.555,4.992 0,0"/>
							</g>
						</g>
					
				
				<g transform="translate(225.08 304.97)">
					<path d="M 0,0 21.21,-19.504 18.797,8.079 C 11.18,8.079 4.555,4.992 0,0" fill="#007cff"/>
				</g>
				
					
					
						<g clip-path="url(#clipPath1174)" opacity=".3">
							<g transform="translate(225.08 304.97)">
								<path d="M 0,0 21.21,-19.504 18.797,8.079 C 11.18,8.079 4.555,4.992 0,0"/>
							</g>
						</g>
					
				
				
					
					
						<g clip-path="url(#clipPath1190)" opacity=".3">
							<g transform="translate(248.71 257.88)">
								<path d="M 0,0 C 15.234,0 26.503,12.35 25.17,27.583 H -2.413 L -20.211,8.079 C -14.783,3.088 -7.617,0 0,0" fill="#fff"/>
							</g>
						</g>
					
				
				<g transform="translate(266.76 262.6)">
					<path d="m0 0c0.324-3.703-2.415-6.705-6.118-6.705s-6.967 3.002-7.291 6.705 2.415 6.705 6.118 6.705 6.967-3.002 7.291-6.705" fill="#1a2e35"/>
				</g>
				<g transform="translate(257.72 261.48)">
					<path d="m0 0c-0.612 0.553-0.91 1.159-0.958 1.701-0.08 0.926 0.483 1.543 1.419 1.543 0.872 0 1.206-0.404 1.768-0.989 0.459 0.585 0.721 0.989 1.594 0.989 0.936 0 1.607-0.617 1.688-1.543 0.047-0.542-0.144-1.148-0.66-1.701l-2.214-2.415z" fill="#007cff"/>
				</g>
				<g transform="translate(228.93 296.2)">
					<path d="m0 0c0.324-3.703-2.415-6.705-6.118-6.705s-6.967 3.002-7.291 6.705 2.415 6.705 6.118 6.705 6.967-3.002 7.291-6.705" fill="#1a2e35"/>
				</g>
				<g transform="translate(226.45 296.2)">
					<path d="m0 0c0.204-2.333-1.521-4.223-3.854-4.223-2.332 0-4.388 1.89-4.592 4.223s1.521 4.223 3.853 4.223c2.333 0 4.389-1.89 4.593-4.223" fill="#007cff"/>
				</g>
				
					
					
						<g clip-path="url(#clipPath1222)" opacity=".5">
							<g transform="translate(226.45 296.2)">
								<path d="m0 0c0.204-2.333-1.521-4.223-3.854-4.223-2.332 0-4.388 1.89-4.592 4.223s1.521 4.223 3.853 4.223c2.333 0 4.389-1.89 4.593-4.223" fill="#fff"/>
							</g>
						</g>
					
				
				<g transform="translate(223.77 295.3)">
					<path d="m0 0c-0.79-0.792-2.007-0.794-2.937 0-0.371 0.316-0.84-0.196-0.468-0.514 1.247-1.064 2.902-1.064 3.963 0 0.317 0.318-0.243 0.83-0.558 0.514" fill="#007cff"/>
				</g>
				<g transform="translate(221.1 297.57)">
					<path d="m0 0c0.041-0.459-0.087-0.832-0.285-0.832s-0.391 0.373-0.431 0.832 0.088 0.832 0.285 0.832c0.198 0 0.391-0.373 0.431-0.832" fill="#007cff"/>
				</g>
				<g transform="translate(223.83 297.57)">
					<path d="m0 0c0.04-0.459-0.087-0.832-0.286-0.832-0.197 0-0.39 0.373-0.43 0.832s0.087 0.832 0.285 0.832 0.39-0.373 0.431-0.832" fill="#007cff"/>
				</g>
				<g transform="translate(269.87 302.29)">
					<path d="m0 0c0.324-3.703-2.416-6.705-6.118-6.705-3.703 0-6.967 3.002-7.291 6.705s2.415 6.705 6.117 6.705c3.704 0 6.968-3.002 7.292-6.705" fill="#1a2e35"/>
				</g>
				<g transform="translate(267.39 302.29)">
					<path d="m0 0c0.204-2.333-1.521-4.223-3.854-4.223-2.332 0-4.388 1.89-4.592 4.223s1.521 4.223 3.853 4.223c2.333 0 4.389-1.89 4.593-4.223" fill="#007cff"/>
				</g>
				
					
					
						<g clip-path="url(#clipPath1258)" opacity=".5">
							<g transform="translate(267.39 302.29)">
								<path d="m0 0c0.204-2.333-1.521-4.223-3.854-4.223-2.332 0-4.388 1.89-4.592 4.223s1.521 4.223 3.853 4.223c2.333 0 4.389-1.89 4.593-4.223" fill="#fff"/>
							</g>
						</g>
					
				
				<g transform="translate(261.88 300.18)">
					<path d="m0 0c0.79 0.792 2.007 0.794 2.937 0 0.371-0.316 0.84 0.196 0.468 0.514-1.247 1.064-2.902 1.064-3.963 0-0.317-0.318 0.243-0.83 0.558-0.514" fill="#007cff"/>
				</g>
				<g transform="translate(262.04 303.67)">
					<path d="m0 0c0.04-0.459-0.087-0.832-0.285-0.832s-0.391 0.373-0.431 0.832 0.088 0.832 0.285 0.832c0.198 0 0.391-0.373 0.431-0.832" fill="#007cff"/>
				</g>
				<g transform="translate(264.77 303.67)">
					<path d="m0 0c0.041-0.459-0.087-0.832-0.285-0.832s-0.391 0.373-0.431 0.832 0.088 0.832 0.285 0.832c0.198 0 0.391-0.373 0.431-0.832" fill="#007cff"/>
				</g>
				<g transform="translate(229.49 275.62)">
					<path d="m0 0c0.324-3.703-2.415-6.705-6.118-6.705s-6.967 3.002-7.291 6.705 2.415 6.705 6.118 6.705 6.967-3.002 7.291-6.705" fill="#1a2e35"/>
				</g>
				<g transform="translate(227.01 275.62)">
					<path d="m0 0c0.204-2.332-1.521-4.223-3.854-4.223-2.332 0-4.388 1.891-4.592 4.223-0.204 2.333 1.521 4.223 3.854 4.223 2.332 0 4.388-1.89 4.592-4.223" fill="#007cff"/>
				</g>
				
					
					
						<g clip-path="url(#clipPath1294)" opacity=".5">
							<g transform="translate(227.01 275.62)">
								<path d="m0 0c0.204-2.332-1.521-4.223-3.854-4.223-2.332 0-4.388 1.891-4.592 4.223-0.204 2.333 1.521 4.223 3.854 4.223 2.332 0 4.388-1.89 4.592-4.223" fill="#fff"/>
							</g>
						</g>
					
				
				<g transform="translate(220.81 274.28)">
					<path d="m0 0c1.259-1.158 3.135-1.158 4.191 0l-0.061 0.706h-4.192z" fill="#007cff"/>
				</g>
				<g transform="translate(222.23 276.88)">
					<path d="m0 0c-0.614 0.486-1.311 0.486-1.839 0-0.248-0.228 0.172-0.611 0.419-0.385 0.312 0.288 0.706 0.288 1.069 0 0.285-0.226 0.639 0.157 0.351 0.385" fill="#007cff"/>
				</g>
				<g transform="translate(224.96 276.88)">
					<path d="m0 0c-0.614 0.486-1.311 0.486-1.839 0-0.248-0.228 0.172-0.611 0.418-0.385 0.313 0.288 0.706 0.288 1.069 0 0.286-0.226 0.639 0.157 0.352 0.385" fill="#007cff"/>
				</g>
				<g transform="translate(298.88 227.72)">
					<path d="m0 0h-31.013v-5.042h62.026v2.072z" fill="#007cff"/>
				</g>
				
					
					
						<g clip-path="url(#clipPath1326)" opacity=".60001">
							<g transform="translate(298.88 227.72)">
								<path d="m0 0h-31.013v-5.042h62.026v2.072z" fill="#fff"/>
							</g>
						</g>
					
				
				
					
					
						<g clip-path="url(#clipPath1342)" opacity=".60001">
							<g transform="translate(298.88 222.67)">
								<path d="m0 0h-31.013v5.042l31.013-2.97z" fill="#fff"/>
							</g>
						</g>
					
				
				
					
					
						<g clip-path="url(#clipPath1358)" opacity=".5">
							<g transform="translate(398.23 282.49)">
								<path d="m0 0-4.267 48.767-5.774-0.509-24.736-71.349 27.615 2.434z" fill="#fff"/>
							</g>
						</g>
					
				
				
					
					
						<g clip-path="url(#clipPath1374)" opacity=".5">
							<g transform="translate(266.91 253.87)">
								<path d="m0 0 23.797 68.64h-26.772l-23.797-68.64z" fill="#fff"/>
							</g>
						</g>
					
				
				
					
					
						<g clip-path="url(#clipPath1390)" opacity=".5">
							<g transform="translate(170.07 256.27)">
								<path d="m0 0 19.529 56.328-0.89 10.172-21.702 1.884-22.926-66.127z" fill="#fff"/>
							</g>
						</g>
					
				
			</g>
		
		
			<g clip-path="url(#clipPath1406)">
				<g transform="translate(347.77 212.82)">
					<path d="m0 0h-195.81c-0.951 0-1.723 0.771-1.723 1.723v4.252h199.26v-4.252c0-0.952-0.771-1.723-1.723-1.723" fill="#007cff"/>
				</g>
				
					
					
						<g clip-path="url(#clipPath1418)" opacity=".2">
							<g transform="translate(347.77 212.82)">
								<path d="m0 0h-195.81c-0.951 0-1.723 0.771-1.723 1.723v4.252h199.26v-4.252c0-0.952-0.771-1.723-1.723-1.723"/>
							</g>
						</g>
					
				
				
					
					
						<g clip-path="url(#clipPath1434)" opacity=".3">
							<g transform="translate(240.44 212.82)">
								<path d="m0 0h-88.478c-0.951 0-1.722 0.771-1.722 1.723v4.252h90.2z" fill="#fff"/>
							</g>
						</g>
					
				
				<g transform="translate(353.56 217.67)">
					<path d="m0 0h-207.37c-1.122 0-2.032 0.91-2.032 2.032v0.936c0 1.122 0.91 2.032 2.032 2.032h207.37c1.122 0 2.032-0.91 2.032-2.032v-0.936c0-1.122-0.91-2.032-2.032-2.032" fill="#007cff"/>
				</g>
				
					
					
						<g clip-path="url(#clipPath1454)" opacity=".39999">
							<g transform="translate(240.44 217.67)">
								<path d="m0 0h-94.258c-1.122 0-2.032 0.91-2.032 2.032v0.936c0 1.122 0.91 2.032 2.032 2.032h94.258z" fill="#fff"/>
							</g>
						</g>
					
				
				<g transform="translate(160.76 208.8)">
					<path d="m0 0c-1.94 0-3.519-1.578-3.519-3.519v-105.17c0-1.941 1.579-3.52 3.519-3.52h69.161c1.941 0 3.52 1.579 3.52 3.52v105.17c0 1.941-1.579 3.519-3.52 3.519zm69.161-116.21h-69.161c-4.146 0-7.519 3.373-7.519 7.52v105.17c0 4.146 3.373 7.519 7.519 7.519h69.161c4.147 0 7.52-3.373 7.52-7.519v-105.17c0-4.147-3.373-7.52-7.52-7.52" fill="#1a2e35"/>
				</g>
				
					
					
						<g clip-path="url(#clipPath1474)" opacity=".39999">
							
								
								
									<g clip-path="url(#clipPath1478)" opacity=".2">
										<g transform="translate(160.76 208.8)">
											<path d="m0 0c-1.94 0-3.519-1.578-3.519-3.519v-105.17c0-1.941 1.579-3.52 3.519-3.52h69.161c1.941 0 3.52 1.579 3.52 3.52v105.17c0 1.941-1.579 3.519-3.52 3.519zm69.161-116.21h-69.161c-4.146 0-7.519 3.373-7.519 7.52v105.17c0 4.146 3.373 7.519 7.519 7.519h69.161c4.147 0 7.52-3.373 7.52-7.519v-105.17c0-4.147-3.373-7.52-7.52-7.52" fill="#fff"/>
										</g>
									</g>
								
							
						</g>
					
				
				
					
					
						<g clip-path="url(#clipPath1502)" opacity=".2">
							<g transform="translate(229.92 212.8)">
								<path d="m0 0h-69.161c-3.89 0-7.099-2.969-7.481-6.759h4.049c0.349 1.575 1.753 2.759 3.432 2.759h69.161c1.679 0 3.083-1.184 3.432-2.759h4.049c-0.382 3.79-3.591 6.759-7.481 6.759"/>
							</g>
						</g>
					
				
				<g transform="translate(268.42 208.8)">
					<path d="m0 0c-1.94 0-3.519-1.578-3.519-3.519v-105.17c0-1.941 1.579-3.52 3.519-3.52h69.161c1.941 0 3.52 1.579 3.52 3.52v105.17c0 1.941-1.579 3.519-3.52 3.519zm69.161-116.21h-69.161c-4.146 0-7.519 3.373-7.519 7.52v105.17c0 4.146 3.373 7.519 7.519 7.519h69.161c4.147 0 7.52-3.373 7.52-7.519v-105.17c0-4.147-3.373-7.52-7.52-7.52" fill="#1a2e35"/>
				</g>
				
					
					
						<g clip-path="url(#clipPath1522)" opacity=".10001">
							<g transform="translate(268.42 208.8)">
								<path d="m0 0c-1.94 0-3.519-1.578-3.519-3.519v-105.17c0-1.941 1.579-3.52 3.519-3.52h69.161c1.941 0 3.52 1.579 3.52 3.52v105.17c0 1.941-1.579 3.519-3.52 3.519zm69.161-116.21h-69.161c-4.146 0-7.519 3.373-7.519 7.52v105.17c0 4.146 3.373 7.519 7.519 7.519h69.161c4.147 0 7.52-3.373 7.52-7.519v-105.17c0-4.147-3.373-7.52-7.52-7.52" fill="#fff"/>
							</g>
						</g>
					
				
				
					
					
						<g clip-path="url(#clipPath1538)" opacity=".2">
							<g transform="translate(337.58 212.8)">
								<path d="m0 0h-69.161c-3.89 0-7.099-2.969-7.481-6.759h4.049c0.349 1.575 1.753 2.759 3.432 2.759h69.161c1.679 0 3.083-1.184 3.432-2.759h4.049c-0.382 3.79-3.591 6.759-7.481 6.759"/>
							</g>
						</g>
					
				
			</g>
		
		
			<g clip-path="url(#clipPath1554)">
				<g transform="translate(213.21 188.09)">
					<path d="m0 0h-77.348c-4.651 0-8.422-3.771-8.422-8.423v-79.043c0-4.652 3.771-8.423 8.422-8.423h77.348c4.651 0 8.422 3.771 8.422 8.423v79.043c0 4.652-3.771 8.423-8.422 8.423" fill="#007cff"/>
				</g>
				
					
					
						<g clip-path="url(#clipPath1566)" opacity=".39999">
							<g transform="translate(213.21 188.09)">
								<path d="m0 0h-77.348c-4.651 0-8.422-3.771-8.422-8.423v-79.043c0-4.652 3.771-8.423 8.422-8.423h77.348c4.651 0 8.422 3.771 8.422 8.423v79.043c0 4.652-3.771 8.423-8.422 8.423" fill="#fff"/>
							</g>
						</g>
					
				
				
					
					
						<g clip-path="url(#clipPath1582)" opacity=".10001">
							<g transform="translate(127.44 100.69)">
								<path d="m0 0v-0.067c0-4.653 3.771-8.423 8.422-8.423h77.348c4.651 0 8.422 3.77 8.422 8.423v0.067z"/>
							</g>
						</g>
					
				
				<g transform="translate(213.21 92.203)">
					<path d="m0 0h-21.443c-4.652 0-8.423 3.771-8.423 8.423v79.043c0 4.651 3.771 8.423 8.423 8.423h21.443c4.652 0 8.423-3.772 8.423-8.423v-79.043c0-4.652-3.771-8.423-8.423-8.423" fill="#007cff"/>
				</g>
				
					
					
						<g clip-path="url(#clipPath1602)" opacity=".3">
							<g transform="translate(213.21 96.703)">
								<path d="m0 0c2.163 0 3.923 1.76 3.923 3.923v79.043c0 2.163-1.76 3.923-3.923 3.923h-21.443c-2.163 0-3.923-1.76-3.923-3.923v-79.043c0-2.163 1.76-3.923 3.923-3.923z" fill="#fff"/>
							</g>
						</g>
					
				
				
					
					
						<g clip-path="url(#clipPath1618)" opacity=".7">
							<path d="m214.24 171.09h-23.5v6.25h23.5z" fill="#fff"/>
						</g>
					
				
				
					
					
						<g clip-path="url(#clipPath1632)" opacity=".7">
							<path d="m214.24 163.59h-23.5v6.25h23.5z" fill="#fff"/>
						</g>
					
				
				<g transform="translate(207.38 140.15)">
					<path d="m0 0c0-2.704-2.191-4.896-4.895-4.896-2.703 0-4.895 2.192-4.895 4.896 0 2.703 2.192 4.895 4.895 4.895 2.704 0 4.895-2.192 4.895-4.895" fill="#007cff"/>
				</g>
				
					
					
						<g clip-path="url(#clipPath1650)" opacity=".89999">
							<g transform="translate(203.62 141.12)">
								<path d="m0 0c0.937-1.017 0.307-2.74-1.138-2.747-1.449-6e-3 -2.07 1.736-1.138 2.747 0.467 0.507-0.289 1.266-0.758 0.758-1.555-1.687-0.511-4.576 1.896-4.576 2.408 0 3.451 2.889 1.895 4.576-0.468 0.508-1.224-0.251-0.757-0.758" fill="#fff"/>
							</g>
							<g transform="translate(201.95 143)">
								<path d="m0 0v-2.44c0-0.69 1.071-0.691 1.071 0v2.44c0 0.689-1.071 0.69-1.071 0" fill="#fff"/>
							</g>
						</g>
					
				
				<g transform="translate(194.72 125.67)">
					<path d="m0 0c0-0.828-0.672-1.5-1.5-1.5-0.829 0-1.5 0.672-1.5 1.5s0.671 1.5 1.5 1.5c0.828 0 1.5-0.672 1.5-1.5" fill="#007cff"/>
				</g>
				<g transform="translate(200.9 125.67)">
					<path d="m0 0c0-0.828-0.671-1.5-1.5-1.5s-1.5 0.672-1.5 1.5 0.671 1.5 1.5 1.5 1.5-0.672 1.5-1.5" fill="#007cff"/>
				</g>
				<g transform="translate(207.08 125.67)">
					<path d="m0 0c0-0.828-0.671-1.5-1.5-1.5-0.828 0-1.5 0.672-1.5 1.5s0.672 1.5 1.5 1.5c0.829 0 1.5-0.672 1.5-1.5" fill="#007cff"/>
				</g>
				<g transform="translate(213.26 125.67)">
					<path d="m0 0c0-0.828-0.671-1.5-1.5-1.5s-1.5 0.672-1.5 1.5 0.671 1.5 1.5 1.5 1.5-0.672 1.5-1.5" fill="#007cff"/>
				</g>
				<g transform="translate(197.81 120.34)">
					<path d="m0 0c0-0.829-0.672-1.5-1.5-1.5-0.829 0-1.5 0.671-1.5 1.5 0 0.828 0.671 1.5 1.5 1.5 0.828 0 1.5-0.672 1.5-1.5" fill="#007cff"/>
				</g>
				<g transform="translate(203.99 120.34)">
					<path d="m0 0c0-0.829-0.671-1.5-1.5-1.5-0.828 0-1.5 0.671-1.5 1.5 0 0.828 0.672 1.5 1.5 1.5 0.829 0 1.5-0.672 1.5-1.5" fill="#007cff"/>
				</g>
				<g transform="translate(210.17 120.34)">
					<path d="m0 0c0-0.829-0.672-1.5-1.5-1.5-0.829 0-1.5 0.671-1.5 1.5 0 0.828 0.671 1.5 1.5 1.5 0.828 0 1.5-0.672 1.5-1.5" fill="#007cff"/>
				</g>
				<g transform="translate(194.72 114.43)">
					<path d="m0 0c0-0.828-0.672-1.5-1.5-1.5-0.829 0-1.5 0.672-1.5 1.5 0 0.829 0.671 1.5 1.5 1.5 0.828 0 1.5-0.671 1.5-1.5" fill="#007cff"/>
				</g>
				<g transform="translate(200.9 114.43)">
					<path d="m0 0c0-0.828-0.671-1.5-1.5-1.5s-1.5 0.672-1.5 1.5c0 0.829 0.671 1.5 1.5 1.5s1.5-0.671 1.5-1.5" fill="#007cff"/>
				</g>
				<g transform="translate(207.08 114.43)">
					<path d="m0 0c0-0.828-0.671-1.5-1.5-1.5-0.828 0-1.5 0.672-1.5 1.5 0 0.829 0.672 1.5 1.5 1.5 0.829 0 1.5-0.671 1.5-1.5" fill="#007cff"/>
				</g>
				<g transform="translate(213.26 114.43)">
					<path d="m0 0c0-0.828-0.671-1.5-1.5-1.5s-1.5 0.672-1.5 1.5c0 0.829 0.671 1.5 1.5 1.5s1.5-0.671 1.5-1.5" fill="#007cff"/>
				</g>
				<g transform="translate(197.81 109.1)">
					<path d="m0 0c0-0.828-0.672-1.5-1.5-1.5-0.829 0-1.5 0.672-1.5 1.5s0.671 1.5 1.5 1.5c0.828 0 1.5-0.672 1.5-1.5" fill="#007cff"/>
				</g>
				<g transform="translate(203.99 109.1)">
					<path d="m0 0c0-0.828-0.671-1.5-1.5-1.5-0.828 0-1.5 0.672-1.5 1.5s0.672 1.5 1.5 1.5c0.829 0 1.5-0.672 1.5-1.5" fill="#007cff"/>
				</g>
				<g transform="translate(210.17 109.1)">
					<path d="m0 0c0-0.828-0.672-1.5-1.5-1.5-0.829 0-1.5 0.672-1.5 1.5s0.671 1.5 1.5 1.5c0.828 0 1.5-0.672 1.5-1.5" fill="#007cff"/>
				</g>
				<g transform="translate(194.72 103.19)">
					<path d="m0 0c0-0.829-0.672-1.5-1.5-1.5-0.829 0-1.5 0.671-1.5 1.5 0 0.828 0.671 1.5 1.5 1.5 0.828 0 1.5-0.672 1.5-1.5" fill="#007cff"/>
				</g>
				<g transform="translate(200.9 103.19)">
					<path d="m0 0c0-0.829-0.671-1.5-1.5-1.5s-1.5 0.671-1.5 1.5c0 0.828 0.671 1.5 1.5 1.5s1.5-0.672 1.5-1.5" fill="#007cff"/>
				</g>
				<g transform="translate(207.08 103.19)">
					<path d="m0 0c0-0.829-0.671-1.5-1.5-1.5-0.828 0-1.5 0.671-1.5 1.5 0 0.828 0.672 1.5 1.5 1.5 0.829 0 1.5-0.672 1.5-1.5" fill="#007cff"/>
				</g>
				<g transform="translate(213.26 103.19)">
					<path d="m0 0c0-0.829-0.671-1.5-1.5-1.5s-1.5 0.671-1.5 1.5c0 0.828 0.671 1.5 1.5 1.5s1.5-0.672 1.5-1.5" fill="#007cff"/>
				</g>
			</g>
		
		
			<g clip-path="url(#clipPath1742)">
				<g transform="translate(330.13 232.37)">
					<path d="m0 0-6.041 2.723-8.467-3.532v-4.215s13.146 0.438 13.143 0.418c0 0 14.829-4.938 20.306-4.178 5.476 0.76 22.917 25.065 22.917 25.065l-8.762 7.671-16.683-23.773z" fill="#ffc2bc"/>
				</g>
				
					
					
						<g clip-path="url(#clipPath1754)" opacity=".10001">
							<g transform="translate(330.13 232.37)">
								<path d="m0 0-6.041 2.723-8.467-3.532v-4.215s13.146 0.438 13.143 0.418c0 0 0.372-0.124 1.016-0.329l4.244 4.977z"/>
							</g>
						</g>
					
				
				<g transform="translate(357.33 249.41)">
					<path d="m0 0s6.066 10.786 9.942 14.204c2.352 2.074 5.632 2.721 7.847 2.908 1.392 0.118 2.583-0.986 2.593-2.383 0.031-4.263-1.08-13.539-9.85-23.083z" fill="#1a2e35"/>
				</g>
				<g transform="translate(357.33 251.44)">
					<path d="m0 0s7.386-3.475 11.711-10.311l-2.358-1.823s-4.811 6.067-10.828 9.551z" fill="#007cff"/>
				</g>
				<g transform="translate(342.5 290.38)">
					<path d="m0 0-2.994-4.704s1.56-1.151 3.744-0.368z" fill="#ff837f"/>
				</g>
				<g transform="translate(341.99 293.78)">
					<path d="m0 0c-1.423 0-2.582-1.262-2.582-2.813 0-1.55 1.159-2.812 2.582-2.812s2.581 1.262 2.581 2.812c0 1.551-1.158 2.813-2.581 2.813m0-6.375c-1.837 0-3.332 1.599-3.332 3.562 0 1.965 1.495 3.563 3.332 3.563s3.331-1.598 3.331-3.563c0-1.963-1.494-3.562-3.331-3.562" fill="#007cff"/>
				</g>
				<g transform="translate(340.7 291.04)">
					<path d="m0 0c-7e-3 -0.607 0.302-1.104 0.7-1.11 0.398-5e-3 0.752 0.508 0.742 1.098-9e-3 0.591-0.302 1.105-0.701 1.104s-0.728-0.487-0.741-1.092" fill="#002a32"/>
				</g>
				<g transform="translate(364.12 294.83)">
					<path d="m0 0c0.268-8.069 0.555-11.485-3.106-15.986-5.795-4.779-15.492-5.341-18.164 2.493-2.407 7.047-2.439 19.03 5.115 23.012 5.386 2.836 12.051 0.77 14.888-4.616 0.797-1.514 1.231-3.193 1.267-4.903" fill="#ffc2bc"/>
				</g>
				
					
					
						<g clip-path="url(#clipPath1794)" opacity=".2">
							<g transform="translate(352.79 275.4)">
								<path d="m0 0-0.059 0.396c-0.128 0.873-0.993 1.437-1.844 1.204l-3.281-0.899c1.577-0.662 3.359-0.874 5.184-0.701" fill="#002a32"/>
							</g>
						</g>
					
				
				<g transform="translate(342.88 293.79)">
					<path d="m0 0c-0.106-0.011-0.212 0.03-0.283 0.11-0.5 0.629-1.272 0.978-2.075 0.939-0.173-0.021-0.33 0.1-0.354 0.272-0.019 0.174 0.103 0.332 0.276 0.356 1.016 0.073 2.002-0.359 2.639-1.154 0.114-0.133 0.099-0.334-0.035-0.449h-1e-3c-0.048-0.039-0.106-0.065-0.167-0.074" fill="#002a32"/>
				</g>
				<g transform="translate(352.49 277.44)">
					<path d="m0 0 1.769-11.984 10.008 2.072-3.205 12.266z" fill="#ffc2bc"/>
				</g>
				<g transform="translate(342.46 301.37)">
					<path d="m0 0c3.405-6.484 5.766-0.554 5.14-5.78s1.252-6.919 1.252-6.919l6.856-10.226c0.362-0.54 1.059-0.719 1.655-0.457 1.78 0.78 2.933 0.609 3.567 0.351 0.446-0.181 0.945-0.128 1.305 0.191 1.548 1.37 5.222 5.296 6.35 12.496 2.212 14.109-8.629 16.26-8.629 16.26-6.025 1.251-4.481 7.637-8.061 7.636-2.73-1e-3 -1.926-4.494-1.926-4.494s-2.925 2.19-4.62 1.444c-2.189-0.962-0.247-5.457-0.247-5.457s-5.98 1.313-2.642-5.045" fill="#002a32"/>
				</g>
				<g transform="translate(349.51 292.47)">
					<path d="m0 0h-10.002l0.481 1h9.521z" fill="#007cff"/>
				</g>
				<g transform="translate(347.46 291.23)">
					<path d="m0 0c-0.29-1.624 0.08-3.296 1.026-4.647 1.269-1.783 3.29-0.988 4.098 0.916 0.731 1.724 0.938 4.714-0.898 5.829-1.837 1.114-3.849-0.117-4.226-2.098" fill="#ffc4be"/>
				</g>
				<g transform="translate(349.79 269.84)">
					<path d="m0 0s6.426 6.074 13.167 5.583c4.583-0.333 6-6.083 6-6.083z" fill="#1a2e35"/>
				</g>
				
					
					
						<g clip-path="url(#clipPath1834)" opacity=".2">
							<g transform="translate(349.79 269.84)">
								<path d="m0 0s6.426 6.074 13.167 5.583c4.583-0.333 6-6.083 6-6.083z" fill="#fff"/>
							</g>
						</g>
					
				
				<g transform="translate(354.13 196.34)">
					<path d="m0 0-14.083 68.757c-0.564 2.753 1.296 5.281 4.059 5.511 8.834 0.736 26.646 1.449 32.602-4.018 13.883-12.745 14.984-71.25 14.984-71.25z" fill="#1a2e35"/>
				</g>
				
					
					
						<g clip-path="url(#clipPath1854)" opacity=".5">
							<g transform="translate(344.04 266.17)">
								<path d="m0 0s-2.241-0.858-3.733-2.347l4.633-22.617c4.138 9.27 3.852 24.964 3.852 24.964z"/>
							</g>
						</g>
					
				
				<g transform="translate(302.06 233.23)">
					<path d="m0 0-5.975 2.987-8.375-3.875v-4.625s13.003 0.482 13 0.458c0 0 14.667-5.417 20.084-4.583 5.416 0.833 22.666 27.5 22.666 27.5l-8.666 8.416-16.5-26.083z" fill="#ffc2bc"/>
				</g>
				<g transform="translate(328.96 251.92)">
					<path d="m0 0s6 11.833 9.833 15.583c3.834 3.75 10.155 3.247 10.155 3.247s2.251-13.724-9.571-27.997z" fill="#1a2e35"/>
				</g>
				<g transform="translate(328.96 254.15)">
					<path d="m0 0s7.305-3.813 11.583-11.313l-2.333-2s-4.758 6.657-10.708 10.479z" fill="#1a2e35"/>
				</g>
				
					
					
						<g clip-path="url(#clipPath1882)" opacity=".2">
							<g transform="translate(328.96 254.15)">
								<path d="m0 0s7.305-3.813 11.583-11.313l-2.333-2s-4.758 6.657-10.708 10.479z" fill="#fff"/>
							</g>
						</g>
					
				
				<g transform="translate(350.08 121.28)">
					<path d="m0 0 3.427-16.604 6.761 1-1.625 16.166z" fill="#ffc2bc"/>
				</g>
				
					
					
						<g clip-path="url(#clipPath1902)" opacity=".2">
							<g transform="translate(359.71 111.19)">
								<path d="m0 0-1.07 10.65-8.563-0.562 2.142-10.379z"/>
							</g>
						</g>
					
				
				<g transform="translate(390.19 196.84)">
					<path d="m0 0s3.433-18-8.317-18-27.378-3.842-27.378-3.842 4.5-4.273 5.5-58.743l-9.75-0.415s-16.196 61.479-13 68.234c4.5 9.516 27.8 12.766 27.8 12.766z" fill="#007cff"/>
				</g>
				
					
					
						<g clip-path="url(#clipPath1922)" opacity=".2">
							<g transform="translate(390.19 196.84)">
								<path d="m0 0s3.433-18-8.317-18-27.378-3.842-27.378-3.842 4.5-4.273 5.5-58.743l-9.75-0.415s-16.196 61.479-13 68.234c4.5 9.516 27.8 12.766 27.8 12.766z"/>
							</g>
						</g>
					
				
				<g transform="translate(348.18 118.76)">
					<path d="m0 0 13.256 0.334-0.423-5.5-11.122-0.477z" fill="#007cff"/>
				</g>
				
					
					
						<g clip-path="url(#clipPath1942)" opacity=".5">
							<g transform="translate(348.18 118.76)">
								<path d="m0 0 13.256 0.334-0.423-5.5-11.122-0.477z" fill="#fff"/>
							</g>
						</g>
					
				
				<g transform="translate(349.18 104.87)">
					<path d="m0 0c-0.108-0.011-0.214-0.038-0.314-0.08-0.136-0.04-0.246-0.141-0.299-0.273-0.099-0.221-0.043-0.317 0.01-0.368 0.382-0.419 2.16-0.216 3.45 0.103-0.902 0.384-1.868 0.594-2.847 0.618m1.284-1.235c-0.875-0.106-1.799-0.054-2.134 0.288-0.177 0.201-0.207 0.493-0.074 0.726 0.094 0.207 0.265 0.37 0.478 0.453 1.137 0.465 3.761-0.643 3.877-0.692 0.065-0.028 0.106-0.094 0.102-0.164-6e-3 -0.07-0.053-0.131-0.119-0.153-0.695-0.215-1.408-0.369-2.13-0.458" fill="#007cff"/>
				</g>
				<g transform="translate(350.51 106.73)">
					<path d="m0 0-0.097-3e-3c-0.296-0.061-0.301-0.184-0.309-0.228 0.014-0.483 1.267-1.544 2.202-1.956-0.18 0.789-0.596 1.503-1.194 2.047-0.177 0.119-0.391 0.168-0.602 0.14m2.064-2.645c-0.022-8e-3 -0.047-9e-3 -0.07-1e-3 -0.887 0.272-2.762 1.595-2.707 2.406-6e-3 0.193 0.11 0.442 0.564 0.544 0.331 0.075 0.678 0.012 0.962-0.174 0.985-0.63 1.401-2.506 1.421-2.593 0.012-0.06-0.01-0.121-0.056-0.16-0.034-0.022-0.075-0.028-0.114-0.022" fill="#007cff"/>
				</g>
				<g transform="translate(353.2 105.16)">
					<path d="m0 0 7.686 0.923c0.29 0.034 0.565-0.136 0.662-0.411l2.14-6.086c0.194-0.539-0.086-1.132-0.624-1.326-0.069-0.025-0.141-0.042-0.214-0.052-2.776-0.284-5.258-0.429-8.707-0.848-4.07-0.489-2.979-0.852-7.756-1.495-2.879-0.384-3.8 2.83-2.597 3.139 5.511 1.376 5.889 3.135 7.807 5.397 0.424 0.441 0.994 0.711 1.603 0.759" fill="#007cff"/>
				</g>
				<g transform="translate(330.3 116.83)">
					<path d="m0 0 6.375-15.479 6.208 1.24-4.27 16.562z" fill="#ffc2bc"/>
				</g>
				
					
					
						<g clip-path="url(#clipPath1974)" opacity=".2">
							<g transform="translate(341.46 108.1)">
								<path d="m0 0-2.849 11.05-8.312-2.323 4.144-10.063z"/>
							</g>
						</g>
					
				
				<g transform="translate(390.19 196.84)">
					<path d="m0 0s7.259-18.775-16.737-18c-9.19 0.297-48.992-9-48.992-9s7.179-3.75 16.179-54l-10.187-2.313s-28.88 57.057-25.685 63.813c4.5 9.515 51.857 19.5 51.857 19.5z" fill="#007cff"/>
				</g>
				<g transform="translate(329.21 114.17)">
					<path d="m0 0 12.083 2.583 1.25-5-11.583-2.666z" fill="#007cff"/>
				</g>
				
					
					
						<g clip-path="url(#clipPath1998)" opacity=".5">
							<g transform="translate(329.21 114.17)">
								<path d="m0 0 12.083 2.583 1.25-5-11.583-2.666z" fill="#fff"/>
							</g>
						</g>
					
				
				<g transform="translate(331.56 101.88)">
					<path d="m0 0c-0.108-0.011-0.214-0.038-0.314-0.08-0.136-0.04-0.247-0.141-0.299-0.273-0.099-0.222-0.044-0.317 0.01-0.368 0.382-0.419 2.159-0.216 3.45 0.103-0.902 0.384-1.868 0.593-2.847 0.618m1.284-1.235c-0.875-0.106-1.799-0.054-2.135 0.287-0.176 0.202-0.206 0.494-0.074 0.727 0.094 0.207 0.266 0.37 0.479 0.453 1.136 0.465 3.761-0.643 3.877-0.692 0.065-0.028 0.106-0.094 0.101-0.164s-0.052-0.131-0.118-0.153c-0.695-0.215-1.408-0.369-2.13-0.458" fill="#007cff"/>
				</g>
				<g transform="translate(332.88 103.75)">
					<path d="m0 0-0.097-3e-3c-0.297-0.061-0.302-0.184-0.309-0.228 0.014-0.483 1.267-1.544 2.201-1.956-0.179 0.789-0.596 1.503-1.194 2.046-0.176 0.119-0.39 0.169-0.601 0.141m2.064-2.645c-0.022-8e-3 -0.047-9e-3 -0.07-1e-3 -0.887 0.272-2.763 1.595-2.707 2.406-6e-3 0.192 0.109 0.442 0.564 0.543 0.331 0.076 0.678 0.013 0.962-0.173 0.985-0.63 1.401-2.506 1.421-2.594 0.012-0.059-0.01-0.12-0.056-0.159-0.034-0.022-0.075-0.028-0.114-0.022" fill="#007cff"/>
				</g>
				<g transform="translate(335.57 102.17)">
					<path d="m0 0 7.686 0.923c0.29 0.034 0.564-0.137 0.662-0.411l2.14-6.086c0.194-0.539-0.086-1.132-0.624-1.326-0.07-0.025-0.141-0.042-0.214-0.052-2.776-0.284-5.258-0.429-8.707-0.848-4.07-0.489-2.979-0.852-7.756-1.495-2.879-0.385-3.801 2.83-2.597 3.138 5.511 1.377 5.889 3.136 7.807 5.397 0.423 0.442 0.994 0.712 1.603 0.76" fill="#007cff"/>
				</g>
			</g>
		
		
			<g clip-path="url(#clipPath2026)">
				<g transform="translate(412.16 111.87)">
					<path d="m0 0c-6.113 1.004-15.177 2.427-19.214 2.725-0.886 0.065-1.998 0.114-3.222 0.146v31.354h-7.677v-31.354c-1.224-0.032-2.336-0.081-3.222-0.146-4.038-0.298-13.102-1.721-19.214-2.725-3.521-0.579-6.101-3.623-6.101-7.191v-1.584h7.446l1 2.227s13.995 2.425 18.711 2.773c2.602 0.191 7.835 0.191 10.437 0 4.716-0.348 18.711-2.773 18.711-2.773l1-2.227h7.445v1.584c0 3.568-2.579 6.612-6.1 7.191" fill="#1a2e35"/>
				</g>
				
					
					
						<g clip-path="url(#clipPath2038)" opacity=".10001">
							<g transform="translate(412.16 111.87)">
								<path d="m0 0c-6.113 1.004-15.177 2.427-19.214 2.725-0.886 0.065-1.998 0.114-3.222 0.146v31.354h-7.677v-31.354c-1.224-0.032-2.336-0.081-3.222-0.146-4.038-0.298-13.102-1.721-19.214-2.725-3.521-0.579-6.101-3.623-6.101-7.191v-1.584h7.446l1 2.227s13.995 2.425 18.711 2.773c2.602 0.191 7.835 0.191 10.437 0 4.716-0.348 18.711-2.773 18.711-2.773l1-2.227h7.445v1.584c0 3.568-2.579 6.612-6.1 7.191" fill="#fff"/>
							</g>
						</g>
					
				
				<g transform="translate(388.48 141.59)">
					<path d="m0 0h-5.194c-1.97 0-3.566 1.597-3.566 3.565v26.501h12.326v-26.501c0-1.968-1.596-3.565-3.566-3.565" fill="#1a2e35"/>
				</g>
				
					
					
						<g clip-path="url(#clipPath2058)" opacity=".2">
							<path d="m379.72 164.34h12.326v7.316h-12.326z"/>
						</g>
					
				
				<g transform="translate(420.39 97.842)">
					<path d="m0 0c0-2.899-2.35-5.25-5.25-5.25-2.899 0-5.25 2.351-5.25 5.25s2.351 5.25 5.25 5.25c2.9 0 5.25-2.351 5.25-5.25" fill="#1a2e35"/>
				</g>
				<g transform="translate(361.88 97.842)">
					<path d="m0 0c0-2.899-2.35-5.25-5.25-5.25-2.899 0-5.25 2.351-5.25 5.25s2.351 5.25 5.25 5.25c2.9 0 5.25-2.351 5.25-5.25" fill="#1a2e35"/>
				</g>
				<g transform="translate(427.56 177.9)">
					<path d="m0 0c-7.354 1.875-14.91 2.906-22.487 3.097-7.809 0.196-37.039 0.029-43.981 0.032-8.449 3e-3 -16.899-1.038-25.096-3.129-5.154-1.314-3.565-8.751 1.089-8.837 0.412-8e-3 88.772 0.019 89.097 4e-3 4.869-0.221 6.645 7.49 1.378 8.833" fill="#007cff"/>
				</g>
				
					
					
						<g clip-path="url(#clipPath2084)" opacity=".3">
							<g transform="translate(427.56 177.9)">
								<path d="m0 0c-7.354 1.875-14.91 2.906-22.487 3.097-7.809 0.196-37.039 0.029-43.981 0.032-8.449 3e-3 -16.899-1.038-25.096-3.129-5.154-1.314-3.565-8.751 1.089-8.837 0.412-8e-3 88.772 0.019 89.097 4e-3 4.869-0.221 6.645 7.49 1.378 8.833"/>
							</g>
						</g>
					
				
				<g transform="translate(338.38 169.22)">
					<path d="m0 0c14.843 3.785 30.565 3.785 45.408 0 5.615-1.432 8.01 7.246 2.393 8.679-16.395 4.18-33.799 4.18-50.194 0-5.608-1.431-3.231-10.114 2.393-8.679" fill="#007cff"/>
				</g>
				
					
					
						<g clip-path="url(#clipPath2104)" opacity=".39999">
							<g transform="translate(338.38 169.22)">
								<path d="m0 0c14.843 3.785 30.565 3.785 45.408 0 5.615-1.432 8.01 7.246 2.393 8.679-16.395 4.18-33.799 4.18-50.194 0-5.608-1.431-3.231-10.114 2.393-8.679" fill="#fff"/>
							</g>
						</g>
					
				
				<g transform="translate(403.92 242.3)">
					<path d="m0 0c-0.93 0.018-1.863-0.398-2.485-1.433-11.905-19.796-16.135-43.594-12.027-66.299 0.257-1.423 1.231-2.086 2.313-2.161 1.802-0.123 33.882-8e-3 35.045-6e-3 1.75 3e-3 3.672 1.49 3.261 3.761-3.817 21.1 0.386 43.325 11.422 61.677 1.371 2.281-0.651 4.421-2.696 4.461-0.929 0.018-32.789-0.04-34.833 0" fill="#007cff"/>
				</g>
				
					
					
						<g clip-path="url(#clipPath2124)" opacity=".2">
							<g transform="translate(403.92 242.3)">
								<path d="m0 0c-0.93 0.018-1.863-0.398-2.485-1.433-11.905-19.796-16.135-43.594-12.027-66.299 0.257-1.423 1.231-2.086 2.313-2.161 1.802-0.123 33.882-8e-3 35.045-6e-3 1.75 3e-3 3.672 1.49 3.261 3.761-3.817 21.1 0.386 43.325 11.422 61.677 1.371 2.281-0.651 4.421-2.696 4.461-0.929 0.018-32.789-0.04-34.833 0"/>
							</g>
						</g>
					
				
				<g transform="translate(395.2 176.16)">
					<path d="m0 0c-3.817 21.1 0.386 43.324 11.422 61.677 1.995 3.317-3.191 6.338-5.181 3.028-11.905-19.797-16.134-43.595-12.027-66.3 0.687-3.794 6.471-2.186 5.786 1.595" fill="#007cff"/>
				</g>
				
					
					
						<g clip-path="url(#clipPath2144)" opacity=".39999">
							<g transform="translate(395.2 176.16)">
								<path d="m0 0c-3.817 21.1 0.386 43.324 11.422 61.677 1.995 3.317-3.191 6.338-5.181 3.028-11.905-19.797-16.134-43.595-12.027-66.3 0.687-3.794 6.471-2.186 5.786 1.595" fill="#fff"/>
							</g>
						</g>
					
				
				<g transform="translate(355.91 202.25)">
					<path d="m0 0c10.305-9.425 20.609-18.85 30.913-28.274 2.133-1.953 5.325 1.221 3.182 3.181-10.304 9.425-20.609 18.85-30.913 28.275-2.133 1.951-5.325-1.223-3.182-3.182" fill="#1a2e35"/>
				</g>
				
					
					
						<g clip-path="url(#clipPath2164)" opacity=".5">
							<g transform="translate(355.91 202.25)">
								<path d="m0 0c10.305-9.425 20.609-18.85 30.913-28.274 2.133-1.953 5.325 1.221 3.182 3.181-10.304 9.425-20.609 18.85-30.913 28.275-2.133 1.951-5.325-1.223-3.182-3.182" fill="#fff"/>
							</g>
						</g>
					
				
				
					
					
						<g clip-path="url(#clipPath2180)" opacity=".2">
							<g transform="translate(359.09 205.43)">
								<path d="m0 0c-2.133 1.951-5.324-1.223-3.182-3.182 1.971-1.803 3.943-3.606 5.914-5.409h6.661c-3.131 2.863-6.262 5.728-9.393 8.591"/>
							</g>
						</g>
					
				
				<g transform="translate(339.79 200.84)">
					<path d="m0 0h42.416c3.86 0 3.867 6 0 6h-42.416c-3.861 0-3.867-6 0-6" fill="#007cff"/>
				</g>
				
					
					
						<g clip-path="url(#clipPath2200)" opacity=".3">
							<g transform="translate(339.79 200.84)">
								<path d="m0 0h42.416c3.86 0 3.867 6 0 6h-42.416c-3.861 0-3.867-6 0-6" fill="#fff"/>
							</g>
						</g>
					
				
			</g>
		
	</g>
</svg>
